<svg height="512" viewBox="0 0 512 512" width="512" xmlns="http://www.w3.org/2000/svg"><g fill="#74624f"><path d="m168 496a8 8 0 0 1 -8-8v-40a8 8 0 0 1 16 0v40a8 8 0 0 1 -8 8z"/><path d="m272 488a8 8 0 0 1 -8-8v-32a8 8 0 0 1 16 0v32a8 8 0 0 1 -8 8z"/><path d="m184 392a8 8 0 0 1 -8-8v-24a8 8 0 0 1 16 0v24a8 8 0 0 1 -8 8z"/><path d="m272 392a8 8 0 0 1 -8-8v-24a8 8 0 0 1 16 0v24a8 8 0 0 1 -8 8z"/></g><path d="m288 456h-136a16 16 0 0 1 0-32h16v-40a8 8 0 0 1 8-8h104a8 8 0 0 1 8 8z" fill="#a98e72"/><path d="m288 456h-16a16 16 0 0 1 -16-16 16 16 0 0 1 16-16h16z" fill="#8e7760"/><path d="m453.49 183.235a47.928 47.928 0 0 0 -45.49-63.235c-1.172 0-2.321.093-3.472.175a40 40 0 1 0 -73.056 0c-1.151-.082-2.3-.175-3.472-.175a47.928 47.928 0 0 0 -45.49 63.235 63.982 63.982 0 1 0 85.49 87.724 63.986 63.986 0 1 0 85.49-87.724z" fill="#c94536"/><path d="m428.615 303.767a63.934 63.934 0 0 0 24.875-120.532 47.928 47.928 0 0 0 -45.49-63.235c-1.172 0-2.321.093-3.472.175a39.707 39.707 0 0 0 -32.528-55.775 39.707 39.707 0 0 0 -32.528 55.772c-1.151-.082-2.3-.175-3.472-.175a47.928 47.928 0 0 0 -45.49 63.235 63.934 63.934 0 0 0 24.875 120.532 63.9 63.9 0 0 0 52.615-32.805 63.885 63.885 0 0 0 4 6.219 63.885 63.885 0 0 0 4-6.219 63.9 63.9 0 0 0 52.615 32.808z" fill="#de4c3b"/><rect fill="#e5a42b" height="256" rx="64" width="128" x="24" y="128"/><path d="m92 128.2a63.95 63.95 0 0 0 -60 63.8v128a63.95 63.95 0 0 0 60 63.8 63.95 63.95 0 0 0 60-63.8v-128a63.95 63.95 0 0 0 -60-63.8z" fill="#fdb62f"/><path d="m88 488a8 8 0 0 1 -8-8v-312a8 8 0 0 1 16 0v312a8 8 0 0 1 -8 8z" fill="#a98e72"/><path d="m88 312a8 8 0 0 1 -5.656-13.656l32-32a8 8 0 0 1 11.312 11.312l-32 32a7.971 7.971 0 0 1 -5.656 2.344z" fill="#a98e72"/><path d="m88 264a7.971 7.971 0 0 1 -5.656-2.344l-32-32a8 8 0 0 1 11.312-11.312l32 32a8 8 0 0 1 -5.656 13.656z" fill="#a98e72"/><path d="m184 88h14.184a25.816 25.816 0 0 1 25.816 25.816v14.184a0 0 0 0 1 0 0h-14.184a25.816 25.816 0 0 1 -25.816-25.816v-14.184a0 0 0 0 1 0 0z" fill="#ec9e15"/><path d="m208 296h14.184a25.816 25.816 0 0 1 25.816 25.816v14.184a0 0 0 0 1 0 0h-14.184a25.816 25.816 0 0 1 -25.816-25.816v-14.184a0 0 0 0 1 0 0z" fill="#ff9201"/><path d="m448 384h14.184a25.816 25.816 0 0 1 25.816 25.816v14.184a0 0 0 0 1 0 0h-14.184a25.816 25.816 0 0 1 -25.816-25.816v-14.184a0 0 0 0 1 0 0z" fill="#de4c3b" transform="matrix(-1 0 0 -1 936 808)"/><path d="m56 56h14.184a25.816 25.816 0 0 1 25.816 25.816v14.184a0 0 0 0 1 0 0h-14.184a25.816 25.816 0 0 1 -25.816-25.816v-14.184a0 0 0 0 1 0 0z" fill="#ff9201" transform="matrix(.996 -.095 .095 .996 -6.846 7.527)"/><path d="m161.4 72a8 8 0 0 1 -6.632-3.516 62.383 62.383 0 0 1 -10.768-35.109v-1.375a8 8 0 0 1 16 0v1.375a46.457 46.457 0 0 0 8.02 26.141 8 8 0 0 1 -6.62 12.484z" fill="#bef5fa"/><path d="m192.008 280a7.991 7.991 0 0 1 -6.711-3.633 57.362 57.362 0 0 1 -9.313-31.367v-1.25a8 8 0 0 1 16 0v1.25a41.394 41.394 0 0 0 6.719 22.633 8 8 0 0 1 -6.695 12.367z" fill="#bef5fa"/><path d="m30.547 57.477a7.994 7.994 0 0 1 -6.711-3.633 57.38 57.38 0 0 1 -9.309-31.375v-1.242a8 8 0 0 1 16 0v1.242a41.429 41.429 0 0 0 6.715 22.64 8 8 0 0 1 -6.695 12.368z" fill="#bef5fa"/><path d="m424.008 376a7.991 7.991 0 0 1 -6.711-3.633 57.362 57.362 0 0 1 -9.313-31.367v-1.25a8 8 0 0 1 16 0v1.25a41.394 41.394 0 0 0 6.719 22.633 8 8 0 0 1 -6.695 12.367z" fill="#bef5fa"/><path d="m280 48h16v16h-16z" fill="#c94536"/><path d="m192 168h16v16h-16z" fill="#f85542"/><path d="m312 344h16v16h-16z" fill="#dc9315"/><path d="m416 440h16v16h-16z" fill="#c94536"/><path d="m368 488a8 8 0 0 1 -8-8v-344a8 8 0 0 1 16 0v344a8 8 0 0 1 -8 8z" fill="#905638"/><path d="m368 216a7.955 7.955 0 0 1 -5-1.75l-40-32a8 8 0 0 1 10-12.5l40 32a8 8 0 0 1 -5 14.25z" fill="#905638"/><path d="m368 256a8 8 0 0 1 -5.656-13.656l40-40a8 8 0 0 1 11.312 11.312l-40 40a7.971 7.971 0 0 1 -5.656 2.344z" fill="#905638"/><path d="m80 480a8 8 0 0 0 16 0v-16h-16z" fill="#8e7760"/><path d="m160 480a8 8 0 0 0 16 0v-16h-16z" fill="#8e7760"/><path d="m264 480a8 8 0 0 0 16 0v-16h-16z" fill="#8e7760"/><path d="m360 464h16v21.846h-16z" fill="#75462e"/><path d="m488 496h-464a8 8 0 0 1 0-16h464a8 8 0 0 1 0 16z" fill="#5d8668"/><path d="m176 368h16v8h-16z" fill="#685847"/><path d="m264 368h16v8h-16z" fill="#685847"/><path d="m168 416h120v8h-120z" fill="#978068"/></svg>