<svg id="Capa_1" enable-background="new 0 0 497 497" height="512" viewBox="0 0 497 497" width="512" xmlns="http://www.w3.org/2000/svg"><path d="m497 185.061c-158.731-40.713-226.611 82.444-497 87.533v93.376l248.5 86.779h198.676l49.824-50.552z" fill="#00c071"/><path d="m293.508 348.798h29.121v92.491h-29.121z" fill="#36d39a"/><path d="m407.764 348.798h29.121v92.491h-29.121z" fill="#36d39a"/><path d="m130.965 289.813h45.033v108.928h-45.033z" fill="#e27858"/><path d="m0 365.97c181.524-30.195 334.099 99.332 497 36.227v90.197h-497z" fill="#80dfb5"/><path d="m130.965 346.742c7.079 2.904 14.722 4.455 22.516 4.455 7.795 0 15.438-1.551 22.517-4.455v-56.928h-45.033z" fill="#ca5935"/><path d="m272.207 196.767c-1.256-2.381-.842-5.299 1.026-7.237l.268-.278c12.834-13.311 12.834-34.391.001-47.702l-.27-.28c-1.868-1.938-2.282-4.856-1.026-7.236 8.703-16.497 2.656-36.924-13.625-46.026l-.894-.5c-1.802-1.007-2.773-3.041-2.424-5.076 3.224-18.793-9.469-36.617-28.283-39.716l-1.958-.322c-.815-.134-1.468-.748-1.652-1.554-4.412-19.345-24.244-30.944-43.268-25.306l-1.171.347c-13.637-15.033-37.264-15.032-50.901 0l-1.171-.347c-19.024-5.639-38.857 5.96-43.268 25.305-.184.805-.836 1.419-1.651 1.553l-1.959.323c-18.812 3.098-31.506 20.922-28.282 39.715.349 2.036-.623 4.071-2.426 5.08l-.893.499c-16.28 9.102-22.327 29.529-13.624 46.026 1.256 2.381.842 5.299-1.026 7.237l-.269.278c-12.834 13.311-12.834 34.391-.001 47.702l.27.28c1.868 1.938 2.282 4.856 1.026 7.236-8.702 16.497-2.656 36.924 13.625 46.026l.894.5c1.802 1.007 2.773 3.041 2.424 5.076-3.224 18.793 9.469 36.617 28.283 39.716l1.958.322c.815.134 1.468.748 1.651 1.554 4.412 19.345 24.244 30.944 43.268 25.306l1.171-.347c13.637 15.033 37.264 15.032 50.901 0l1.171.347c19.024 5.639 38.857-5.96 43.268-25.305.184-.805.836-1.419 1.651-1.553l1.959-.323c18.813-3.099 31.507-20.923 28.283-39.715-.349-2.036.623-4.071 2.426-5.08l.893-.499c16.281-9.102 22.327-29.529 13.625-46.026z" fill="#80dfb5"/><circle cx="381.123" cy="85.796" fill="#f8e86a" r="41.832"/><path d="m401.123 107.627c-23.103 0-41.832-18.729-41.832-41.832 0-6.382 1.435-12.428 3.991-17.84-14.178 6.696-23.991 21.12-23.991 37.84 0 23.103 18.729 41.832 41.832 41.832 16.72 0 31.144-9.813 37.84-23.991-5.412 2.556-11.458 3.991-17.84 3.991z" fill="#fab659"/><g fill="#ff71a7"><path d="m381.122 33.791c-4.143 0-7.5-3.358-7.5-7.5v-9.936c0-4.142 3.357-7.5 7.5-7.5s7.5 3.358 7.5 7.5v9.936c0 4.142-3.357 7.5-7.5 7.5z"/><path d="m423.199 51.219c-1.92 0-3.839-.732-5.304-2.197-2.929-2.929-2.929-7.678.001-10.607l7.026-7.026c2.928-2.929 7.677-2.928 10.606 0 2.929 2.929 2.929 7.678-.001 10.607l-7.026 7.026c-1.464 1.465-3.384 2.197-5.302 2.197z"/><path d="m450.564 93.296h-9.937c-4.143 0-7.5-3.358-7.5-7.5s3.357-7.5 7.5-7.5h9.937c4.143 0 7.5 3.358 7.5 7.5s-3.358 7.5-7.5 7.5z"/><path d="m430.225 142.398c-1.919 0-3.839-.732-5.303-2.197l-7.026-7.026c-2.93-2.929-2.93-7.677-.001-10.607 2.93-2.929 7.679-2.929 10.606 0l7.026 7.026c2.93 2.929 2.93 7.677.001 10.607-1.464 1.464-3.384 2.197-5.303 2.197z"/><path d="m381.122 162.737c-4.143 0-7.5-3.358-7.5-7.5v-9.937c0-4.142 3.357-7.5 7.5-7.5s7.5 3.358 7.5 7.5v9.936c0 4.143-3.357 7.501-7.5 7.501z"/><path d="m332.021 142.398c-1.919 0-3.839-.732-5.303-2.197-2.93-2.929-2.93-7.677-.001-10.607l7.025-7.026c2.93-2.929 7.679-2.929 10.606 0 2.93 2.929 2.93 7.677.001 10.607l-7.025 7.026c-1.464 1.464-3.384 2.197-5.303 2.197z"/><path d="m321.618 93.296h-9.937c-4.143 0-7.5-3.358-7.5-7.5s3.357-7.5 7.5-7.5h9.937c4.143 0 7.5 3.358 7.5 7.5s-3.357 7.5-7.5 7.5z"/><path d="m339.046 51.219c-1.92 0-3.839-.732-5.304-2.197l-7.025-7.026c-2.929-2.929-2.929-7.678.001-10.607 2.929-2.929 7.678-2.928 10.606 0l7.025 7.026c2.929 2.929 2.929 7.678-.001 10.607-1.463 1.465-3.383 2.197-5.302 2.197z"/><path d="m343.678 304.337.013-.032c5.3-13.105-7.742-26.148-20.847-20.847l-.033.013c-5.517-13.019-23.969-13.019-29.486 0l-.032-.013c-13.105-5.3-26.148 7.742-20.848 20.847l.013.032c-13.019 5.517-13.019 23.969 0 29.486l-.013.032c-5.3 13.105 7.742 26.148 20.847 20.847l.032-.013c5.517 13.019 23.969 13.019 29.486 0l.032.013c13.105 5.3 26.148-7.742 20.848-20.847l-.013-.033c13.02-5.516 13.02-23.968.001-29.485z"/></g><circle cx="308.068" cy="319.08" fill="#f8e86a" r="15.998"/><path d="m457.934 304.337.013-.032c5.3-13.105-7.742-26.148-20.847-20.847l-.033.013c-5.517-13.019-23.969-13.019-29.486 0l-.032-.013c-13.105-5.3-26.148 7.742-20.847 20.847l.013.032c-13.019 5.517-13.019 23.969 0 29.486l-.013.032c-5.3 13.105 7.742 26.148 20.847 20.847l.032-.013c5.517 13.019 23.969 13.019 29.486 0l.032.013c13.105 5.3 26.148-7.742 20.848-20.847l-.013-.033c13.019-5.516 13.019-23.968 0-29.485z" fill="#817cd0"/><circle cx="422.324" cy="319.08" fill="#f8e86a" r="15.998"/><path d="m109.795 14.901c-12.561 2.744-23.128 12.456-26.203 25.938-.184.805-.836 1.419-1.651 1.554l-1.959.322c-18.813 3.099-31.507 20.922-28.283 39.715.349 2.036-.623 4.072-2.426 5.08l-.893.5c-16.28 9.102-22.327 29.529-13.624 46.026 1.256 2.381.842 5.299-1.026 7.237l-.269.278c-12.834 13.311-12.834 34.391 0 47.702l.27.28c1.868 1.938 2.282 4.855 1.026 7.236-8.703 16.497-2.656 36.925 13.625 46.026l.894.5c1.802 1.007 2.773 3.041 2.424 5.076-3.224 18.793 9.469 36.617 28.283 39.716l1.958.322c.815.134 1.468.749 1.651 1.554 2.584 11.331 10.462 19.997 20.366 24.106-74.352-154.618-16.021-265.94 5.837-299.168z" fill="#36d39a"/><ellipse cx="83.297" cy="185.893" fill="#ffa0ab" rx="25.897" ry="20.623"/><ellipse cx="223.666" cy="185.893" fill="#ffa0ab" rx="25.897" ry="20.623"/><path d="m98.389 173.287c-4.143 0-7.5-3.358-7.5-7.5v-10.078c0-4.142 3.357-7.5 7.5-7.5s7.5 3.358 7.5 7.5v10.078c0 4.142-3.357 7.5-7.5 7.5z" fill="#423e4f"/><path d="m153.482 179.843c-7.734 0-15.09-3.349-20.18-9.189-2.721-3.123-2.396-7.86.727-10.582 3.122-2.721 7.859-2.397 10.582.726 2.24 2.571 5.474 4.045 8.871 4.045s6.631-1.474 8.87-4.044c2.721-3.123 7.458-3.448 10.581-.728s3.449 7.458.728 10.582c-5.089 5.84-12.444 9.19-20.179 9.19z" fill="#423e4f"/><path d="m222.199 173.006c-4.143 0-7.5-3.358-7.5-7.5 0-2.304-1.875-4.179-4.18-4.179s-4.18 1.875-4.18 4.179c0 4.142-3.357 7.5-7.5 7.5s-7.5-3.358-7.5-7.5c0-10.576 8.604-19.179 19.18-19.179s19.18 8.604 19.18 19.179c0 4.142-3.358 7.5-7.5 7.5z" fill="#423e4f"/></svg>