<svg height="512" viewBox="0 0 58 58" width="512" xmlns="http://www.w3.org/2000/svg"><g id="Page-1" fill="none" fill-rule="evenodd"><g id="041---Shower" fill-rule="nonzero" transform="translate(0 -1)"><path id="Shape" d="m33 21.13c.3257307-.0893041.6622628-.1330533 1-.13 2.209139 0 4 1.790861 4 4s-1.790861 4-4 4c-.3871716.0012307-.772043-.0595385-1.14-.18h-27.72c-.36776818.1212434-.75276718.1820327-1.14.18-2.209139 0-4-1.790861-4-4s1.790861-4 4-4c.33852965-.0047191.67578156.0424961 1 .14z" fill="#f9c795"/><path id="Shape" d="m56 44v4h-17c-.5522847 0-1-.4477153-1-1v-2c0-.5522847.4477153-1 1-1z" fill="#f0c419"/><rect id="Rectangle-path" fill="#ff5364" height="8" rx="2" width="11" x="39" y="36"/><path id="Shape" d="m58 6.52v51.48c0 .5522847-.4477153 1-1 1h-2c-.5522847 0-1-.4477153-1-1v-45.84l.09-.16z" fill="#a5a5a4"/><path id="Shape" d="m57.41 5.11-3.52-3.52c-.6268397-.63518639-1.6003817-.7742638-2.38-.34l-6.6 3.66-2.5 1.39c-.5482197.30716523-.9210268.8532651-1.0074222 1.47570481s.1235851 1.24943121.5674222 1.69429519l7.56 7.56c.444864.4438371 1.0718555.6538176 1.6942952.5674222s1.1685396-.4592025 1.4757048-1.0074222l1.3-2.34.09-.16 3.66-6.6c.4328498-.77987971.2939021-1.75251342-.34-2.38z" fill="#2fa8cc"/><path id="Shape" d="m36 55v2c-.0032948 1.1032019-.8967981 1.9967052-2 2h-30c-1.10320187-.0032948-1.9967052-.8967981-2-2v-2c0-5.5228475 4.4771525-10 10-10h3.97c-.08-2.29-.3-3.16-.52-5.25 2.3549296.3333333 4.7450704.3333333 7.1 0-.22 2.09-.44 2.96-.52 5.25h3.97c5.5228475 0 10 4.4771525 10 10z" fill="#fdd7ad"/><path id="Shape" d="m17 47c0 .5522847-.4477153 1-1 1s-1-.4477153-1-1c.0334068-1.7826478-.0769507-3.5650877-.33-5.33-.08-.6-.16-1.25-.24-2.1.3333333.0666667.6733333.1266667 1.02.18.33.05.67.09 1.02.13.07.59.13 1.08.19 1.54.2551418 1.8486401.3688053 3.7140585.34 5.58z" fill="#f9c795"/><path id="Shape" d="m23.57 39.57c-.08.85-.16 1.5-.24 2.1-.2530493 1.7649123-.3634068 3.5473522-.33 5.33 0 .5522847-.4477153 1-1 1s-1-.4477153-1-1c-.0283029-1.8692528.0853571-3.7379568.34-5.59.06-.46.12-.94.19-1.53.35-.04.69-.08 1.02-.13.35-.05.69-.11 1.02-.18z" fill="#f9c795"/><path id="Shape" d="m33 14v11c.0176737 1.2748783-.0290524 2.5498356-.14 3.82-.44 4.26-2.2 9.27-9.29 10.75-.3333333.0666667-.6733333.1266667-1.02.18-.33.05-.67.09-1.02.13-1.6828721.1600025-3.3771279.1600025-5.06 0-.35-.04-.69-.08-1.02-.13-.35-.05-.69-.11-1.02-.18-7.09-1.48-8.85-6.49-9.29-10.75-.11094756-1.2701644-.15767374-2.5451217-.14-3.82v-10c9 0 10-5 10-5s5 4 18 4z" fill="#fdd7ad"/><path id="Shape" d="m33 14.5v1.5c-13 0-18-4-18-4s-1 5-10 5v-4.5c0-3.59 5-8.5 14-8.5 3.5827547-.13574207 7.1222617.81975047 10.15 2.74 1.9139372 1.18231488 3.2833166 3.07284923 3.81 5.26.02.08.02.67.03 1.25s.01 1.17.01 1.25z" fill="#a56a43"/><path id="Shape" d="m9 55v4h-2v-4c0-.5522847.44771525-1 1-1s1 .4477153 1 1z" fill="#f9c795"/><path id="Shape" d="m31 55v4h-2v-4c0-.5522847.4477153-1 1-1s1 .4477153 1 1z" fill="#f9c795"/><path id="Shape" d="m54.09 14.09-.09.16-1.3 2.34c-.3071652.5482197-.8532651.9210268-1.4757048 1.0074222s-1.2494312-.1235851-1.6942952-.5674222l-7.56-7.56c-.4438371-.44486398-.6538176-1.07185548-.5674222-1.69429519s.4592025-1.16853958 1.0074222-1.47570481l2.5-1.39z" fill="#d1d4d1"/><g fill="#67b9cc"><path id="Shape" d="m40 20c-.4043959-.0000863-.7689341-.2437275-.923678-.6173454-.1547439-.373618-.0692299-.8036603.216678-1.0896546l3-3c.3923789-.3789722 1.0160848-.3735524 1.4018186.0121814s.3911536 1.0094397.0121814 1.4018186l-3 3c-.1874927.1875494-.4418052.2929434-.707.293z"/><path id="Shape" d="m44 24c-.4043959-.0000863-.7689341-.2437275-.923678-.6173454-.1547439-.373618-.0692299-.8036603.216678-1.0896546l3-3c.3923789-.3789722 1.0160848-.3735524 1.4018186.0121814s.3911536 1.0094397.0121814 1.4018186l-3 3c-.1874927.1875494-.4418052.2929434-.707.293z"/><path id="Shape" d="m36 16c-.4043959-.0000863-.7689341-.2437275-.923678-.6173454-.1547439-.373618-.0692299-.8036603.216678-1.0896546l3-3c.3923789-.3789722 1.0160848-.3735524 1.4018186.0121814s.3911536 1.0094397.0121814 1.4018186l-3 3c-.1874927.1875494-.4418052.2929434-.707.293z"/></g><path id="Shape" d="m14 56h-2c-.5522847 0-1-.4477153-1-1s.4477153-1 1-1h2c.5522847 0 1 .4477153 1 1s-.4477153 1-1 1z" fill="#f09372"/><path id="Shape" d="m26 56h-2c-.5522847 0-1-.4477153-1-1s.4477153-1 1-1h2c.5522847 0 1 .4477153 1 1s-.4477153 1-1 1z" fill="#f09372"/><path id="Shape" d="m20 29h-2c-.5522847 0-1-.4477153-1-1s.4477153-1 1-1h2c.5522847 0 1 .4477153 1 1s-.4477153 1-1 1z" fill="#f9c795"/><path id="Shape" d="m25 32c-1.0092521 2.4222051-3.3759445 4-6 4s-4.9907479-1.5777949-6-4z" fill="#fff"/><path id="Shape" d="m12 27c-1.6568542 0-3-1.3431458-3-3s1.3431458-3 3-3 3 1.3431458 3 3-1.3431458 3-3 3z" fill="#ecf0f1"/><path id="Shape" d="m23 24c0-1.6568542 1.3431458-3 3-3s3 1.3431458 3 3-1.3431458 3-3 3-3-1.3431458-3-3z" fill="#ecf0f1"/><path id="Shape" d="m13 25c-.5522847 0-1-.4477153-1-1s.4477153-1 1-1 1 .4477153 1 1-.4477153 1-1 1z" fill="#464f5d"/><path id="Shape" d="m24 24c0-.5522847.4477153-1 1-1s1 .4477153 1 1-.4477153 1-1 1-1-.4477153-1-1z" fill="#464f5d"/><path id="Shape" d="m15 27h-6c-.55228475 0-1-.4477153-1-1s.44771525-1 1-1h6c.5522847 0 1 .4477153 1 1s-.4477153 1-1 1z" fill="#f9c795"/><path id="Shape" d="m29 27h-6c-.5522847 0-1-.4477153-1-1s.4477153-1 1-1h6c.5522847 0 1 .4477153 1 1s-.4477153 1-1 1z" fill="#f9c795"/></g></g></svg>