<svg id="Capa_1" enable-background="new 0 0 497 497" height="512" viewBox="0 0 497 497" width="512" xmlns="http://www.w3.org/2000/svg"><g><path d="m404.716 155.04h-348.973c-27.801 0-50.339 22.537-50.339 50.339v164.932c0 27.801 22.538 50.339 50.339 50.339h348.974c27.801 0 50.339-22.537 50.339-50.339v-164.932c-.001-27.801-22.538-50.339-50.34-50.339z" fill="#90d3f1"/><path d="m231.171 108.425c-40.39 0-66.901-5.121-82.996-10-15.277-4.632-31.84 1.006-40.933 14.126-17.853 25.759-41.037 75.616-41.037 160.839h329.932c0-90.962-74.003-164.965-164.966-164.965z" fill="#ff889e"/><path d="m122.6 266.687c0-66.766 33.907-125.419 85.044-158.887-27.48-1.507-46.738-5.516-59.469-9.375-15.277-4.632-31.84 1.006-40.933 14.126-17.853 25.759-41.037 75.616-41.037 160.839h56.523c-.076-2.226-.128-4.458-.128-6.703z" fill="#ff748f"/><circle cx="364.353" cy="273.391" fill="#ffcabd" r="40.239"/><path d="m330.779 187.923c-6.539-7.613-17.041-10.592-26.625-7.615-70.487 21.894-81.806-12.778-136.217-8.766-16.374 1.207-31.413 9.458-41.346 22.532-17.148 22.57-27.158 50.858-26.659 81.505 1.156 70.971 59.319 128.568 130.297 129.065 72.923.511 132.197-58.449 132.197-131.253.001-32.647-11.922-62.505-31.647-85.468z" fill="#ffdcce"/><g><g><path d="m160.797 278.866c-8.621 0-16.82-3.734-22.494-10.244-2.722-3.123-2.396-7.86.727-10.582s7.859-2.396 10.582.727c2.824 3.241 6.901 5.099 11.186 5.099s8.361-1.859 11.186-5.099c2.722-3.123 7.457-3.449 10.582-.727 3.122 2.721 3.448 7.459.727 10.582-5.675 6.51-13.875 10.244-22.496 10.244z" fill="#423e4f"/></g><g><path d="m299.663 278.866c-8.621 0-16.82-3.734-22.494-10.244-2.722-3.123-2.396-7.86.727-10.582s7.86-2.396 10.582.727c2.824 3.241 6.901 5.099 11.186 5.099s8.361-1.859 11.186-5.099c2.722-3.123 7.458-3.449 10.582-.727 3.122 2.721 3.448 7.459.727 10.582-5.676 6.51-13.875 10.244-22.496 10.244z" fill="#423e4f"/></g><ellipse cx="230.23" cy="286.68" fill="#423e4f" rx="13.02" ry="13.886"/></g><path d="m64.323 411.018h331.814v85.982h-331.814z" fill="#ff889e"/><path d="m383.782 374.985h-307.104c-14.157 0-25.634 11.477-25.634 25.634v20.799c0 14.157 11.477 25.634 25.634 25.634h307.104c14.157 0 25.634-11.477 25.634-25.634v-20.799c0-14.157-11.477-25.634-25.634-25.634z" fill="#ff748f"/><path d="m91.19 388.558c0 22.657 18.433 41.089 41.089 41.089h35.844c22.656 0 41.089-18.432 41.089-41.089 0-4.672-.562-9.212-1.593-13.573h-114.836c-1.031 4.361-1.593 8.901-1.593 13.573z" fill="#fd5f7e"/><path d="m150.201 354.547c-18.784 0-34.011 15.227-34.011 34.011 0 8.886 7.203 16.089 16.089 16.089h35.844c8.886 0 16.089-7.203 16.089-16.089-.001-18.783-15.228-34.011-34.011-34.011z" fill="#ffcabd"/><path d="m251.249 388.558c0 22.657 18.433 41.089 41.089 41.089h35.844c22.656 0 41.089-18.432 41.089-41.089 0-4.672-.562-9.212-1.593-13.573h-114.836c-1.031 4.361-1.593 8.901-1.593 13.573z" fill="#fd5f7e"/><path d="m310.259 354.547c18.784 0 34.011 15.227 34.011 34.011 0 8.886-7.203 16.089-16.089 16.089h-35.844c-8.886 0-16.089-7.203-16.089-16.089 0-18.783 15.227-34.011 34.011-34.011z" fill="#ffcabd"/><path d="m484.215 90.447c-.049 0-.097 0-.146 0-36.825 0-66.678-29.853-66.678-66.678 0-5.086.573-10.037 1.655-14.795 1.359-5.977-4.703-10.895-10.224-8.232-22.676 10.939-38.214 34.328-37.728 61.303.643 35.7 29.838 64.85 65.539 65.44 21.63.358 40.944-9.591 53.371-25.255 3.812-4.805.344-11.797-5.789-11.783z" fill="#f9ed80"/><path d="m164.397 386.272c-26.115-32.532-41.797-74.182-41.797-119.585 0-31.651 7.631-61.472 21.093-87.658-6.571 3.789-12.411 8.871-17.102 15.045-9.056 11.919-16.118 25.434-20.696 40.047-2.283-.628-4.894-.97-7.907-.97-22.224 0-40.239 18.016-40.239 40.239 0 22.224 18.016 40.239 40.239 40.239 3.036 0 5.663-.347 7.959-.984 9.807 31.083 30.92 57.245 58.45 73.627z" fill="#ffcabd"/></g></svg>