<?xml version="1.0" encoding="iso-8859-1"?>
<!-- Generator: Adobe Illustrator 19.0.0, SVG Export Plug-In . SVG Version: 6.00 Build 0)  -->
<svg version="1.1" id="Capa_1" xmlns="http://www.w3.org/2000/svg" xmlns:xlink="http://www.w3.org/1999/xlink" x="0px" y="0px"
	 viewBox="0 0 512 512" style="enable-background:new 0 0 512 512;" xml:space="preserve">
<path style="fill:#78A7AF;" d="M323.318,42.735H295v49.359h28.318c2.75,0,5-2.25,5-5V47.735
	C328.318,44.985,326.068,42.735,323.318,42.735z"/>
<path style="fill:#B1E8FF;" d="M290.986,17.373H33.989c-5.5,0-10,4.5-10,10v196.623c0,5.5,4.5,10,10,10h256.997c5.5,0,10-4.5,10-10
	V27.373C300.986,21.873,296.486,17.373,290.986,17.373z"/>
<path style="fill:#ABCCD3;" d="M23.989,201.504v22.492c0,5.5,4.5,10,10,10h256.997c5.5,0,10-4.5,10-10v-22.492H23.989z"/>
<path style="opacity:0.1;fill:#231F20;enable-background:new    ;" d="M51,223.996V27.373c0-5.5,4.5-10,10-10H33.989
	c-5.5,0-10,4.5-10,10v196.623c0,5.5,4.5,10,10,10H61C55.5,233.996,51,229.496,51,223.996z"/>
<path style="fill:#FFFFFF;" d="M71,61.504c0,1.65-1.35,3-3,3H47c-1.65,0-3-1.35-3-3v-21c0-1.65,1.35-3,3-3h21c1.65,0,3,1.35,3,3
	V61.504z"/>
<polygon style="fill:#B1E8FF;" points="136.025,368.37 98.062,467.283 226.912,467.283 188.949,368.37 "/>
<polygon style="opacity:0.1;fill:#231F20;enable-background:new    ;" points="136.025,368.37 98.062,467.283 120,467.283 
	157.963,368.37 "/>
<ellipse style="fill:#D7F7FF;" cx="162.49" cy="167.22" rx="98.77" ry="116.03"/>
<path style="opacity:0.1;fill:#231F20;enable-background:new    ;" d="M91,167.22c0-58.644,37.036-107.117,85.128-114.924
	c-4.459-0.724-9.012-1.106-13.641-1.106c-54.55,0-98.77,51.947-98.77,116.03c0,64.084,44.22,116.03,98.77,116.03
	c4.629,0,9.182-0.383,13.641-1.106C128.036,274.337,91,225.865,91,167.22z"/>
<path style="fill:#D7F7FF;" d="M62.361,290.018c0.777,55.209,45.304,99.725,100.128,99.725c54.823,0,99.35-44.516,100.126-99.725
	H62.361z"/>
<path style="opacity:0.1;fill:#231F20;enable-background:new    ;" d="M89.746,290.018H62.361
	c0.777,55.209,45.304,99.725,100.128,99.725c4.645,0,9.215-0.327,13.692-0.945C127.82,382.113,90.457,340.548,89.746,290.018z"/>
<path style="fill:#B1E8FF;" d="M279.886,287.289c0,2.75-2.25,5-5,5H50.09c-2.75,0-5-2.25-5-5v-18.374c0-2.75,2.25-5,5-5h224.796
	c2.75,0,5,2.25,5,5L279.886,287.289L279.886,287.289z"/>
<path style="opacity:0.1;fill:#231F20;enable-background:new    ;" d="M72.204,287.289v-18.374c0-2.75,2.25-5,5-5H50.09
	c-2.75,0-5,2.25-5,5v18.374c0,2.75,2.25,5,5,5h27.114C74.454,292.289,72.204,290.039,72.204,287.289z"/>
<path style="fill:#D7F7FF;" d="M249.214,482.127c0,2.75-2.25,5-5,5H80.761c-2.75,0-5-2.25-5-5v-18.374c0-2.75,2.25-5,5-5h163.454
	c2.75,0,5,2.25,5,5L249.214,482.127L249.214,482.127z"/>
<path style="opacity:0.1;fill:#231F20;enable-background:new    ;" d="M103,482.127v-18.374c0-2.75,2.25-5,5-5H80.761
	c-2.75,0-5,2.25-5,5v18.374c0,2.75,2.25,5,5,5H108C105.25,487.127,103,484.877,103,482.127z"/>
<path style="fill:#FFCFAB;" d="M369.605,234.72v70.362c0,1.65,0.029,2.971,0.064,2.935s1.014,0.895,2.175,2.067l13.657,13.802
	c1.161,1.173,3.06,1.173,4.221,0.001l13.663-13.804c1.161-1.173,3.06-1.172,4.221,0.001l13.658,13.802
	c1.161,1.173,3.06,1.173,4.221,0.001l13.66-13.803c1.161-1.173,3.06-1.173,4.221-0.001l13.661,13.804c1.16,1.172,3.06,1.172,4.221,0
	l13.66-13.803c1.161-1.173,2.139-2.104,2.174-2.068c0.034,0.035,0.063-1.286,0.063-2.936v-70.36H369.605z"/>
<path style="opacity:0.1;fill:#231F20;enable-background:new    ;" d="M391.525,308.017c-0.035,0.036-0.064-1.284-0.064-2.935
	V234.72h-21.855v70.362c0,1.65,0.029,2.971,0.064,2.935s1.014,0.895,2.175,2.067l13.657,13.802c1.161,1.173,3.06,1.173,4.221,0.001
	l8.819-8.91l-4.842-4.893C392.539,308.911,391.56,307.98,391.525,308.017z"/>
<path style="fill:#B1E8FF;" d="M497.309,234.74c0,2.75-2.25,5-5,5H354.441c-2.75,0-5-2.25-5-5v-65.47c0-2.75,2.25-5,5-5h137.867
	c2.75,0,5,2.25,5,5L497.309,234.74L497.309,234.74z"/>
<path style="opacity:0.1;fill:#231F20;enable-background:new    ;" d="M371.133,234.74v-65.47c0-2.75,2.25-5,5-5h-21.691
	c-2.75,0-5,2.25-5,5v65.47c0,2.75,2.25,5,5,5h21.691C373.383,239.74,371.133,237.49,371.133,234.74z"/>
<path style="fill:#E6E9ED;" d="M460.121,176.788c0,2.75-2.25,5-5,5h-63.492c-2.75,0-5-2.25-5-5v-27.51c0-2.75,2.25-5,5-5h63.492
	c2.75,0,5,2.25,5,5V176.788z"/>
<path style="opacity:0.1;fill:#231F20;enable-background:new    ;" d="M408.508,176.788v-27.51c0-2.75,2.25-5,5-5h-21.879
	c-2.75,0-5,2.25-5,5v27.51c0,2.75,2.25,5,5,5h21.879C410.758,181.788,408.508,179.538,408.508,176.788z"/>
<g>
	<path style="fill:#FFAF68;" d="M477.145,264.544h-5.119c-4.143,0-7.5,3.357-7.5,7.5s3.357,7.5,7.5,7.5h5.119V264.544z"/>
	<path style="fill:#FFAF68;" d="M459.525,272.044c0-4.143-3.357-7.5-7.5-7.5h-5c-4.143,0-7.5,3.357-7.5,7.5s3.357,7.5,7.5,7.5h5
		C456.168,279.544,459.525,276.186,459.525,272.044z"/>
	<path style="fill:#FFAF68;" d="M427.025,264.544h-5c-4.143,0-7.5,3.357-7.5,7.5s3.357,7.5,7.5,7.5h5c4.143,0,7.5-3.357,7.5-7.5
		S431.168,264.544,427.025,264.544z"/>
	<path style="fill:#FFAF68;" d="M377.025,264.544h-7.42v15h7.42c4.143,0,7.5-3.357,7.5-7.5S381.168,264.544,377.025,264.544z"/>
	<path style="fill:#FFAF68;" d="M409.525,272.044c0-4.143-3.357-7.5-7.5-7.5h-5c-4.143,0-7.5,3.357-7.5,7.5s3.357,7.5,7.5,7.5h5
		C406.168,279.544,409.525,276.186,409.525,272.044z"/>
</g>
<path style="fill:#B1E8FF;" d="M504.5,494.627H7.5c-4.142,0-7.5-3.358-7.5-7.5c0-4.143,3.358-7.5,7.5-7.5h497
	c4.143,0,7.5,3.357,7.5,7.5C512,491.27,508.643,494.627,504.5,494.627z"/>
<g>
	<path style="fill:#FFBB4A;" d="M404.125,89.854c-1.522,0-2.869-1-3.32-2.47c-5.448-17.679-9.19-21.462-26.688-26.968
		c-1.454-0.456-2.445-1.815-2.445-3.355c0-1.537,0.991-2.897,2.445-3.354c17.497-5.506,21.239-9.286,26.688-26.968
		c0.451-1.469,1.799-2.47,3.32-2.47c1.524,0,2.868,1.001,3.322,2.47c5.448,17.682,9.189,21.462,26.686,26.968
		c1.455,0.456,2.443,1.816,2.443,3.354c0,1.54-0.988,2.899-2.443,3.355c-17.497,5.506-21.238,9.289-26.686,26.968
		C406.993,88.854,405.649,89.854,404.125,89.854z"/>
	<path style="fill:#FFBB4A;" d="M36.413,441.77c-1.355,0-2.556-0.889-2.958-2.199c-4.854-15.75-8.188-19.119-23.776-24.025
		c-1.295-0.406-2.179-1.618-2.179-2.988c0-1.371,0.883-2.582,2.179-2.989c15.588-4.906,18.922-8.273,23.776-24.025
		c0.402-1.311,1.603-2.199,2.958-2.199c1.359,0,2.555,0.889,2.96,2.199c4.854,15.753,8.187,19.119,23.775,24.025
		c1.296,0.407,2.177,1.618,2.177,2.989c0,1.37-0.882,2.582-2.177,2.988c-15.588,4.906-18.921,8.275-23.775,24.025
		C38.968,440.881,37.771,441.77,36.413,441.77z"/>
</g>
<path style="fill:#FF9F3D;" d="M320.684,374.486c-1.285,0-2.425-0.844-2.807-2.087c-4.607-14.948-7.77-18.145-22.563-22.801
	c-1.23-0.386-2.068-1.535-2.068-2.838c0-1.3,0.838-2.449,2.068-2.835c14.793-4.656,17.956-7.851,22.563-22.798
	c0.382-1.246,1.521-2.09,2.807-2.09c1.29,0,2.426,0.844,2.81,2.09c4.606,14.947,7.77,18.142,22.563,22.798
	c1.229,0.386,2.065,1.535,2.065,2.835c0,1.303-0.836,2.452-2.065,2.838c-14.793,4.656-17.956,7.853-22.563,22.801
	C323.109,373.643,321.974,374.486,320.684,374.486z"/>
<g>
	<path style="fill:#FFFFFF;" d="M100,126.693c-1.97,0-3.91-0.8-5.3-2.2c-1.4-1.4-2.2-3.33-2.2-5.3c0-1.98,0.8-3.91,2.2-5.311
		c1.39-1.39,3.32-2.189,5.3-2.189c1.97,0,3.91,0.8,5.3,2.189c1.4,1.4,2.2,3.33,2.2,5.311c0,1.97-0.8,3.899-2.2,5.3
		C103.91,125.894,101.97,126.693,100,126.693z"/>
	<path style="fill:#FFFFFF;" d="M226,126.693c-1.97,0-3.91-0.8-5.3-2.2c-1.4-1.4-2.2-3.33-2.2-5.3c0-1.98,0.8-3.91,2.2-5.311
		c1.39-1.39,3.33-2.189,5.3-2.189s3.91,0.8,5.3,2.189c1.4,1.4,2.2,3.33,2.2,5.311c0,1.97-0.8,3.899-2.2,5.3
		C229.91,125.894,227.97,126.693,226,126.693z"/>
	<path style="fill:#FFFFFF;" d="M100,221.693c-1.97,0-3.91-0.8-5.3-2.2c-1.4-1.4-2.2-3.33-2.2-5.3c0-1.98,0.8-3.91,2.2-5.311
		c1.39-1.39,3.32-2.199,5.3-2.199c1.97,0,3.91,0.81,5.3,2.199c1.4,1.4,2.2,3.33,2.2,5.311c0,1.97-0.8,3.899-2.2,5.3
		C103.9,220.894,101.97,221.693,100,221.693z"/>
	<path style="fill:#FFFFFF;" d="M226,221.693c-1.97,0-3.91-0.8-5.3-2.2c-1.4-1.4-2.2-3.33-2.2-5.3c0-1.98,0.8-3.91,2.2-5.311
		c1.39-1.39,3.32-2.199,5.3-2.199c1.97,0,3.91,0.81,5.3,2.199c1.4,1.4,2.2,3.33,2.2,5.311c0,1.97-0.8,3.899-2.2,5.3
		C229.9,220.894,227.97,221.693,226,221.693z"/>
</g>
<g>
</g>
<g>
</g>
<g>
</g>
<g>
</g>
<g>
</g>
<g>
</g>
<g>
</g>
<g>
</g>
<g>
</g>
<g>
</g>
<g>
</g>
<g>
</g>
<g>
</g>
<g>
</g>
<g>
</g>
</svg>
