<svg id="Capa_1" enable-background="new 0 0 497 497" height="512" viewBox="0 0 497 497" width="512" xmlns="http://www.w3.org/2000/svg"><g><path d="m140.1 287.667c5.388-5.388 8.077-12.445 8.077-19.513 0-7.067-2.689-14.125-8.077-19.523-5.178-5.168-8.087-12.196-8.087-19.513v-46.563c0-64.286 59.548-82.67 59.548-119.276h113.878c0 36.606 59.548 54.99 59.548 119.276v46.563c0 3.659-.73 7.247-2.099 10.566-1.379 3.309-3.399 6.368-5.988 8.947-10.776 10.786-10.776 28.26 0 39.036 7.927 7.927 14.215 17.174 18.643 27.23l-127.043 28.3-127.043-28.3c4.428-10.056 10.716-19.303 18.643-27.23z" fill="#c1e9fa"/><path d="m383.16 437.612v5.708c0 14.235-5.658 27.89-15.724 37.956s-23.721 15.724-37.956 15.724h-161.96c-14.235 0-27.89-5.658-37.956-15.724s-15.724-23.721-15.724-37.956v-5.708l134.66-17.894z" fill="#c1e9fa"/><path d="m293.044 0h-89.089c-17.607 0-31.88 14.273-31.88 31.88v16.913c0 13.523 10.963 24.486 24.486 24.486h103.878c13.523 0 24.486-10.963 24.486-24.486v-16.913c-.001-17.607-14.274-31.88-31.881-31.88z" fill="#59c2e7"/><path d="m121.457 314.897 28.234 6.289c8.863-71.932 31.335-170.973 66.911-257.906h-25.04c0 36.606-59.548 54.989-59.548 119.276v46.563c0 7.317 2.909 14.345 8.087 19.513 5.388 5.398 8.077 12.455 8.077 19.522s-2.689 14.125-8.077 19.513c-7.928 7.927-14.216 17.174-18.644 27.23z" fill="#90d3f1"/><path d="m151.914 432.552-38.074 5.06v5.708c0 14.235 5.658 27.89 15.724 37.956s23.721 15.724 37.956 15.724h14.346c-13.622-19.474-23.847-41.109-29.952-64.448z" fill="#90d3f1"/><path d="m383.16 351.054v86.558h-269.32v-86.558c0-11.886 2.359-23.531 6.827-34.307.26-.62.52-1.24.79-1.849h254.086c4.978 11.285 7.617 23.59 7.617 36.156z" fill="#59c2e7"/><path d="m251.782 140.229c-1.828-1.779-4.735-1.779-6.564 0-65.417 63.619-47.818 120.438 3.282 120.438 51.1-.001 68.699-56.82 3.282-120.438z" fill="#59c2e7"/><path d="m145.376 381.181c0-17.719 1.714-40.39 5.115-66.283h-29.034c-.27.609-.53 1.229-.79 1.849-4.468 10.776-6.828 22.421-6.828 34.307v86.558h39.475c-5.178-17.85-7.938-36.732-7.938-56.431z" fill="#34b5e1"/><path d="m196.561 73.278h16.025c10.106-25.661 21.334-50.41 33.668-73.278h-42.298c-17.607 0-31.88 14.273-31.88 31.88v16.913c0 13.523 10.962 24.485 24.485 24.485z" fill="#34b5e1"/><g><g><g><g><ellipse cx="164.312" cy="387.911" fill="#fff" rx="31.064" ry="24.738"/></g><g><ellipse cx="332.688" cy="387.911" fill="#fff" rx="31.064" ry="24.738"/></g></g></g><g><path d="m182.416 371.598c-4.142 0-7.5-3.358-7.5-7.5v-12.698c0-4.142 3.358-7.5 7.5-7.5s7.5 3.358 7.5 7.5v12.699c0 4.141-3.358 7.499-7.5 7.499z" fill="#423e4f"/></g><g><path d="m314.584 371.598c-4.142 0-7.5-3.358-7.5-7.5v-12.698c0-4.142 3.358-7.5 7.5-7.5s7.5 3.358 7.5 7.5v12.699c0 4.141-3.358 7.499-7.5 7.499z" fill="#423e4f"/></g><g><path d="m248.5 379.157c-8.845 0-17.256-3.831-23.077-10.51-2.721-3.123-2.396-7.86.727-10.582 3.123-2.721 7.86-2.396 10.582.727 2.971 3.409 7.261 5.365 11.769 5.365s8.797-1.955 11.769-5.365c2.722-3.123 7.459-3.448 10.582-.727s3.448 7.459.727 10.582c-5.823 6.68-14.234 10.51-23.079 10.51z" fill="#423e4f"/></g></g></g></svg>