<svg id="Capa_1" enable-background="new 0 0 512 512" height="512" viewBox="0 0 512 512" width="512" xmlns="http://www.w3.org/2000/svg"><g><circle cx="452.457" cy="449.983" fill="#e5e1e5" r="59.543"/><path d="m462.642 391.325c11.537 10.859 18.752 26.26 18.752 43.354 0 32.884-26.658 59.543-59.543 59.543-3.474 0-6.873-.314-10.184-.885 10.657 10.031 25.001 16.189 40.791 16.189 32.884 0 59.543-26.658 59.543-59.543-.001-29.411-21.33-53.824-49.359-58.658z" fill="#c9bfc8"/><g><path d="m166.286 280.088-9.731 47.531c-.833 4.071-3.629 7.463-7.464 9.057l-98.911 41.113v44.595l136.643-54.208c6.633-2.631 11.844-7.947 14.345-14.634l15.328-40.971z" fill="#fed2a4"/><path d="m166.286 280.088-.813 3.972 20.417 13.209-15.328 40.971c-2.501 6.686-7.713 12.002-14.345 14.634l-106.037 42.064v27.445l136.643-54.208c6.633-2.631 11.844-7.947 14.345-14.634l15.328-40.971z" fill="#ffbd86"/><path d="m173.633 234.948 82.269 34.523 61.587 46.396c7.504 5.653 12.415 14.094 13.623 23.415l15.551 120.03h-44.546l-22.74-115.607-97.343-48.196z" fill="#fed2a4"/><path d="m331.111 339.282c-1.208-9.321-6.118-17.762-13.622-23.415l-61.587-46.396-82.269-34.523 1.515 10.924 56.236 23.599 61.587 46.396c7.504 5.653 12.415 14.094 13.623 23.415l15.551 120.03h24.517z" fill="#ffbd86"/><path d="m255.902 269.471 55.14-130.699c4.855-11.508-.226-24.799-11.517-30.127l-27.227-12.848c-15.027-7.091-32.94-3.33-43.84 9.205-5.645 6.492-10.114 13.917-13.207 21.943l-41.618 108.003z" fill="#fe9738"/><path d="m299.525 108.645-27.227-12.848c-3.013-1.418-6.204-2.427-9.48-2.996-3.088-.536-6.22-.681-9.338-.43.22 18.097 12.548 34.474 30.922 39.038.025.006.05.012.075.019 3.746.923 5.834 4.905 4.334 8.46l-21.226 50.312c-14.913 35.348-55.63 51.949-91.007 37.103l-2.209 5.733-.737 1.912 82.269 34.523 55.14-130.699c4.855-11.508-.226-24.799-11.516-30.127z" fill="#fe860a"/><path d="m310.065 141.086 26.331 17.723h68.771c9.57 0 17.626 7.168 18.744 16.679 1.287 10.951-7.034 20.671-18.046 21.079l-70.863 2.626c-4.28.159-8.502-1.028-12.072-3.393l-28.098-18.612z" fill="#fed2a4"/><path d="m302.116 459.312h44.546l22.812 20.818c3.51 3.203 5.51 7.737 5.51 12.491 0 9.336-7.564 16.905-16.894 16.905h-35.955c-11.056 0-20.019-8.969-20.019-20.033z" fill="#0067c5"/><path d="m369.474 480.129-22.812-20.818h-24.968l22.812 20.818c3.51 3.203 5.51 7.737 5.51 12.491 0 9.336-7.564 16.905-16.894 16.905h24.968c9.33 0 16.894-7.569 16.894-16.905 0-4.753-2-9.287-5.51-12.491z" fill="#0055a3"/><path d="m50.18 377.809v44.575l-20.804 22.827c-3.201 3.512-7.732 5.514-12.483 5.514-9.329 0-16.893-7.569-16.893-16.905v-41.942c0-7.77 6.295-14.069 14.06-14.069z" fill="#0067c5"/><path d="m16.894 423.123c-9.33 0-16.894-7.568-16.894-16.905v27.602c0 9.336 7.564 16.905 16.894 16.905 4.751 0 9.282-2.001 12.483-5.514l20.804-22.827v-27.602l-20.804 22.827c-3.201 3.513-7.733 5.514-12.483 5.514z" fill="#0055a3"/><g><path d="m189.362 163.562-19.678.75-42.533 42.022c-8.157 8.059-21.291 8.017-29.397-.094-8.273-8.278-8.124-21.739.329-29.833l44.492-42.599c5.423-5.192 12.529-8.266 20.027-8.663l26.829-1.421z" fill="#fed2a4"/><path d="m189.431 123.726-.069 39.837 32.982-1.257c6.401-.244 11.806-4.833 13.084-11.11l3.768-18.496c1.21-5.94-3.516-11.422-9.569-11.102z" fill="#fe860a"/></g><path d="m336.396 158.81-26.332-17.723-15.231 36.104 28.098 18.612c1.761 1.167 3.682 2.044 5.69 2.617z" fill="#fe9738"/><path d="m311.196 293.301-55.294-23.829-82.269-34.523-33.58 82.298c-1.896 4.647-.833 9.977 2.702 13.543l37.755 38.084c5.827 5.878 15.656 4.596 19.778-2.58l20.048-34.903 37.499 26.236c5.048 3.531 11.916 2.874 16.2-1.552l41.206-42.564c6.095-6.298 4.005-16.741-4.045-20.21z" fill="#0067c5"/><path d="m311.196 293.301-4.248-1.831-11.724 12.11c-16.493 17.036-42.918 19.569-62.347 5.976l23.025-40.085-26.497-11.119-27.514 47.9c-12.63 21.989-42.727 25.919-60.58 7.91l-1.258 3.084c-1.896 4.647-.833 9.977 2.7 13.541l37.759 38.088c5.828 5.879 15.652 4.596 19.775-2.582l20.048-34.903 37.499 26.236c5.049 3.532 11.916 2.874 16.201-1.553l41.201-42.559c6.096-6.297 4.007-16.745-4.04-20.213z" fill="#0055a3"/><g><g><path d="m281.727 109.215c-21.841-5.426-35.145-27.542-29.716-49.398l6.553-26.382c5.429-21.856 27.536-35.175 49.376-29.749 21.84 5.426 35.145 27.542 29.716 49.398l-6.553 26.382c-5.43 21.856-27.536 35.175-49.376 29.749z" fill="#fed2a4"/><path d="m338.27 50.2c-.17.96-.37 1.92-.61 2.88l-3.28 13.18v.01l-3.28 13.2c-4.61 18.55-21.24 30.95-39.52 30.95-3.25 0-6.55-.39-9.85-1.21-11.27-2.79-20.26-10.04-25.58-19.4 3.15 1.78 6.59 3.19 10.27 4.1 21.84 5.43 43.95-7.89 49.38-29.75l1.96-7.88 4.59-18.5c2.54-10.21.98-20.47-3.62-29.07-.17-.31-.34-.62-.51-.92.22.13.44.25.66.39 14.28 8.44 22.34 25.09 19.39 42.02z" fill="#ffbd86"/><path d="m307.94 3.686c-21.841-5.426-43.947 7.893-49.376 29.749l-3.277 13.191 14.081 9.347c4.305 2.858 10.058 2.121 13.502-1.73l5.275-5.896c3.327-3.719 8.83-4.55 13.108-1.979l33.126 19.907 3.277-13.191c5.429-21.856-7.875-43.972-29.716-49.398z" fill="#685e68"/><path d="m338.27 50.2c-.17.96-.37 1.92-.61 2.88l-3.28 13.18v.01l-16.62-9.99 4.59-18.5c2.54-10.21.98-20.47-3.62-29.07-.17-.31-.34-.62-.51-.92.22.13.44.25.66.39 14.28 8.44 22.34 25.09 19.39 42.02z" fill="#554e56"/></g></g></g></g></svg>