<svg id="flat" height="512" viewBox="0 0 512 512" width="512" xmlns="http://www.w3.org/2000/svg"><circle cx="328" cy="104" fill="#e8c8b3" r="32"/><path d="m274.156 112a52.737 52.737 0 0 1 37.29 15.446l48.554 48.554-16 32-24-16-16 48h-72l32-96-40 16v-32l30.57-12.228a52.735 52.735 0 0 1 19.586-3.772z" fill="#04957c"/><path d="m384 292.31v1.93a30.017 30.017 0 0 1 -5.74 17.65l-24.3 33.42-33.96 46.69-24-16 29.71-49.52 18.29-30.48h-72a31.991 31.991 0 0 1 -32-32v-24h64l40 16 21.14 8.46a29.987 29.987 0 0 1 18.86 27.85z" fill="#e8c8b3"/><path d="m280 296-24 40-12.96 19.44a31.864 31.864 0 0 1 -7.43 7.85l-51.26 38.45-40.35 30.26-16-24 80-64 13.91-25.04 26.09-46.96z" fill="#e8c8b3"/><path d="m274.343 400.971a10.627 10.627 0 0 0 3.443 11.658l34.214 27.371h5.578a18.422 18.422 0 0 0 18.422-18.422 18.426 18.426 0 0 0 -3.094-10.219l-12.906-19.359-24-16a43.183 43.183 0 0 0 -21.657 24.971z" fill="#e4e4e2"/><path d="m144 432v24l4.272 17.09a12 12 0 0 1 -11.641 14.91h-16.631l-16-24-4.888-24.438a20.778 20.778 0 0 1 11.088-22.662l17.8-8.9z" fill="#e4e4e2"/><path d="m224 160-56 26.2a14.3 14.3 0 0 1 -17.525-5.21 14.3 14.3 0 0 1 6.088-20.99l67.437-32z" fill="#e8c8b3"/><path d="m360.319 175.734 39.681-33.797a17.2 17.2 0 0 1 23.168 1.051 17.2 17.2 0 0 1 -.735 25.012l-46.591 41.918a22.479 22.479 0 0 1 -30.83-.906 1.986 1.986 0 0 1 -.372-2.292l15.174-30.348a2 2 0 0 1 .505-.638z" fill="#e8c8b3"/><path d="m280 296-24 40-32-16-2.09-1.04 26.09-46.96z" fill="#f3af3e"/><path d="m356.129 58.744c-.336.055-.667.121-1 .189a31.97 31.97 0 1 0 -18.959 26.358c.04.335.083.671.138 1.007a24 24 0 1 0 19.819-27.554z" fill="#533222"/><path d="m353.96 345.31-33.96 46.69-24-16 29.71-49.52z" fill="#dc4d41"/><path d="m184.35 401.74-40.35 30.26-16-24 40-32 16 24z" fill="#dc4d41"/><g fill="#aedee2"><path d="m184 280h-32a8 8 0 0 1 0-16h32a8 8 0 0 1 0 16z"/><path d="m120 280h-16a8 8 0 0 1 0-16h16a8 8 0 0 1 0 16z"/><path d="m128 224h-48a8 8 0 0 1 0-16h48a8 8 0 0 1 0 16z"/><path d="m48 224h-16a8 8 0 0 1 0-16h16a8 8 0 0 1 0 16z"/><path d="m144 328h-48a8 8 0 0 1 0-16h48a8 8 0 0 1 0 16z"/><path d="m64 328h-16a8 8 0 0 1 0-16h16a8 8 0 0 1 0 16z"/></g><path d="m344 256-16 40h-56a31.991 31.991 0 0 1 -32-32v-24h64z" fill="#fbb540"/></svg>