<svg id="Capa_1" enable-background="new 0 0 512 512" height="512" viewBox="0 0 512 512" width="512" xmlns="http://www.w3.org/2000/svg"><g><g><g><g><path d="m66.866 420.516-52.454 52.683v38.801h242.554l23.694-19.699-23.694-71.785z" fill="#73cbb1"/><path d="m497.588 473.199-53.143-52.683h-188.445v91.484h241.588z" fill="#539499"/></g><g><path d="m201.362 352.922v74.266c0 30.176 24.462 54.638 54.638 54.638l5.627-128.903h-60.265z" fill="#f1cbbc"/><path d="m256 352.922v128.903c30.176 0 54.638-24.462 54.638-54.638v-74.266h-54.638z" fill="#eebca8"/></g><g><g><g><g><g><g><path d="m264.46 101.299h-147.198v70.903c-27.315 1.653-48.959 24.318-48.959 52.048 0 28.057 22.157 50.93 49.927 52.099 8.013 69.001 66.62 122.572 137.77 122.572z" fill="#f6dccd"/></g><g><path d="m394.738 172.203v-70.903h-138.738v297.622c71.151 0 129.757-53.571 137.77-122.572 27.77-1.168 49.927-24.041 49.927-52.099 0-27.73-21.644-50.396-48.959-52.048z" fill="#f1cbbc"/></g></g></g></g></g></g><g><path d="m256 0h-29.786-17.513c-50.5 0-91.439 40.939-91.439 91.439v50.459h138.738l5.627-70.949z" fill="#a45d4e"/><path d="m256 0v141.898h79.977c50.5 0 91.439-40.939 91.439-91.439v-50.459z" fill="#8f5041"/></g></g></g><g><g><path d="m245.364 215.547h-30c0-4.697-3.821-8.519-8.518-8.519s-8.519 3.821-8.519 8.519h-30c0-21.239 17.279-38.519 38.519-38.519 21.238 0 38.518 17.28 38.518 38.519z" fill="#61362b"/></g><g><path d="m343.673 215.547h-30c0-4.697-3.821-8.519-8.519-8.519s-8.519 3.821-8.519 8.519h-30c0-21.239 17.279-38.519 38.519-38.519s38.519 17.28 38.519 38.519z" fill="#61362b"/></g></g><g><path d="m256 247h-87.673v16.808c0 48.343 39.33 87.673 87.673 87.673l10.635-52.24z" fill="#e9a48c"/><path d="m256 247v104.48c48.342 0 87.672-39.33 87.672-87.673v-16.807z" fill="#de9180"/><path d="m199.849 277c5.982 25.464 28.888 44.48 56.15 44.48l8.46-22.245-8.459-22.235z" fill="#eaf1ff"/><path d="m256 277v44.48c27.263 0 50.169-19.017 56.15-44.48z" fill="#d5e7ff"/></g></g></svg>