<?xml version="1.0" encoding="iso-8859-1"?>
<!-- Generator: Adobe Illustrator 17.1.0, SVG Export Plug-In . SVG Version: 6.00 Build 0)  -->
<!DOCTYPE svg PUBLIC "-//W3C//DTD SVG 1.1//EN" "http://www.w3.org/Graphics/SVG/1.1/DTD/svg11.dtd">
<svg version="1.1" id="Capa_1" xmlns="http://www.w3.org/2000/svg" xmlns:xlink="http://www.w3.org/1999/xlink" x="0px" y="0px"
	 viewBox="0 0 92.008 92.008" style="enable-background:new 0 0 92.008 92.008;" xml:space="preserve">
<g>
	<path d="M43.119,21.672c5.975,0,10.835-4.861,10.835-10.836S49.093,0,43.119,0c-5.975,0-10.836,4.861-10.836,10.836
		S37.144,21.672,43.119,21.672z"/>
	<path d="M70.429,1.837c-0.521-0.583-1.283-0.918-2.092-0.918h-1.324c-1.594,0-3.041,1.288-3.224,2.871l-1.799,15.455
		c-0.082,0.699-0.769,1.522-1.442,1.728l-10.635,3.242H35.641h-0.938h-1.312c-1.537,0-3.091,1.152-3.537,2.624l-8.844,29.178
		c-0.245,0.808-0.124,1.623,0.332,2.237s1.201,0.967,2.045,0.967h2.25c1.537,0,3.091-1.152,3.537-2.624l2.529-8.344v9.087v0.503
		v29.166c0,2.757,2.243,5,5,5h0.352c2.757,0,5-2.243,5-5V60.842h2.126v26.166c0,2.757,2.243,5,5,5h0.353c2.757,0,5-2.243,5-5V57.842
		v-0.503V31.619l11.56-4.237c1.378-0.505,2.587-2.042,2.754-3.501L71.104,4.02C71.195,3.216,70.949,2.42,70.429,1.837z"/>
</g>
<g>
</g>
<g>
</g>
<g>
</g>
<g>
</g>
<g>
</g>
<g>
</g>
<g>
</g>
<g>
</g>
<g>
</g>
<g>
</g>
<g>
</g>
<g>
</g>
<g>
</g>
<g>
</g>
<g>
</g>
</svg>
