<svg id="Capa_1" enable-background="new 0 0 512 512" height="512" viewBox="0 0 512 512" width="512" xmlns="http://www.w3.org/2000/svg"><circle cx="256" cy="265" fill="#4bc0ff" r="50"/><path d="m351.602 512v-91.694l151.065-151.065c12.445-12.445 12.445-32.622 0-45.067-12.445-12.445-32.622-12.445-45.067 0l-131.073 131.072c-3.984 3.984-9.388 6.222-15.022 6.222h-111.01c-5.634 0-11.038-2.238-15.022-6.222l-131.072-131.072c-12.445-12.445-32.622-12.445-45.067 0-12.445 12.445-12.445 32.622 0 45.067l151.065 151.065v91.031z" fill="#4bc0ff"/><path d="m345.256 64.485c-1.764-5.43-6.458-9.388-12.108-10.209l-43.668-6.345-19.528-39.57c-2.528-5.119-7.742-8.361-13.452-8.361-5.709 0-10.924 3.242-13.451 8.361l-19.528 39.57-43.667 6.345c-5.65.821-10.345 4.779-12.109 10.209-1.765 5.43-.293 11.391 3.795 15.376l31.598 30.8-7.459 43.491c-.965 5.627 1.348 11.315 5.967 14.671s10.744 3.798 15.797 1.142l39.057-20.534 39.057 20.534c2.195 1.154 4.591 1.723 6.979 1.723 3.11 0 6.206-.966 8.818-2.865 4.619-3.356 6.933-9.043 5.968-14.671l-7.459-43.491 31.598-30.8c4.088-3.985 5.56-9.946 3.795-15.376z" fill="#fdb43a"/><path d="m345.256 64.485c-1.764-5.43-6.458-9.388-12.108-10.209l-43.668-6.345-19.528-39.57c-2.528-5.119-7.742-8.361-13.452-8.361-.168 0-.333.012-.5.018v149.677l.5-.263 39.057 20.534c2.195 1.154 4.591 1.723 6.979 1.723 3.11 0 6.206-.966 8.818-2.865 4.619-3.356 6.933-9.043 5.968-14.671l-7.459-43.491 31.598-30.8c4.088-3.986 5.56-9.947 3.795-15.377z" fill="#f57a21"/><g fill="#0592fd"><path d="m306 265c0-27.614-22.386-50-50-50v100c27.614 0 50-22.386 50-50z"/><path d="m502.666 224.174c-12.445-12.445-32.622-12.445-45.067 0l-131.072 131.072c-3.984 3.984-9.388 6.222-15.022 6.222h-55.505v150.2l95.602.332v-91.694l151.065-151.065c12.444-12.445 12.444-32.622-.001-45.067z"/></g></svg>