<svg id="Flat" height="512" viewBox="0 0 512 512" width="512" xmlns="http://www.w3.org/2000/svg"><g><g><path d="m64 488v-107.478a30 30 0 0 1 19.127-27.96l124.873-48.562h96l124.873 48.562a30 30 0 0 1 19.127 27.96v107.478z" fill="#31cad0"/><path d="m200 312 56 48 56-48-56 176z" fill="#249c9f"/><path d="m120 424h16v64h-16z" fill="#249c9f"/><path d="m312 312-56 48-56-48 16-64h80z" fill="#ffd4cf"/><path d="m296 248h-80l-5.073 20.29 13.11 11.141a36.034 36.034 0 0 0 23.314 8.569h17.249a36.022 36.022 0 0 0 23.428-8.667l13.014-11.155z" fill="#fbb8b0"/><path d="m350 136h-22v-40l-96-32-48 32v40h-22a10 10 0 0 0 -10 10v28a10 10 0 0 0 10 10h22v31.159a20 20 0 0 0 7.048 15.24l43.352 36.841a20 20 0 0 0 12.951 4.76h17.249a20 20 0 0 0 13.015-4.815l43.4-37.2a20 20 0 0 0 6.985-15.185v-30.8h22a10 10 0 0 0 10-10v-28a10 10 0 0 0 -10-10z" fill="#ffd4cf"/><g fill="#ae7069"><path d="m280 144h16v24h-16z"/><path d="m232 168h-16v-24h8 8z"/><path d="m224 208h64a0 0 0 0 1 0 0 24 24 0 0 1 -24 24h-16a24 24 0 0 1 -24-24 0 0 0 0 1 0 0z"/></g><path d="m184 136v-16l8-16h24l16-32 24 32h72a40 40 0 0 0 40-40v-40h-168a40 40 0 0 0 -40 40v52a20 20 0 0 0 20 20z" fill="#fa5d3f"/><path d="m202 304-58 64 48 16-16 32 56 72h24z" fill="#d0f5f0"/><path d="m309.85 303.399 58.15 64.601-48 16 16 32-56 72h-24z" fill="#d0f5f0"/></g><path d="m320 432h56v16h-56z" fill="#249c9f"/></g></svg>