<svg id="Capa_1" enable-background="new 0 0 512 512" height="512" viewBox="0 0 512 512" width="512" xmlns="http://www.w3.org/2000/svg"><g><g><path d="m504.667 62.454c-5.736-6.643-14.058-10.454-22.834-10.454-.001 0-.001 0-.002 0-14.329 0-26.77 10.198-29.58 24.25l-20.139 100.693c-1.397 6.987-7.583 12.058-14.709 12.058h-322.806c-7.126 0-13.312-5.071-14.709-12.058l-20.139-100.693c-2.811-14.051-15.252-24.25-29.581-24.25-8.776 0-17.099 3.81-22.834 10.453s-8.29 15.432-7.01 24.114l14.507 98.374c2.625 17.797 11.569 34.073 25.186 45.829s31.023 18.23 49.012 18.23h43.649v219c0 8.284 6.716 15 15 15h216.644c8.284 0 15-6.716 15-15v-219h43.649c17.989 0 35.396-6.474 49.013-18.23 13.616-11.756 22.561-28.031 25.186-45.828l14.507-98.374c1.28-8.682-1.275-17.472-7.01-24.114z" fill="#7a3db4"/></g><path d="m481.833 52c-.001 0-.001 0-.002 0-14.329 0-26.77 10.198-29.58 24.25l-20.139 100.693c-1.397 6.987-7.583 12.058-14.709 12.058h-161.405v293.999h108.323c8.284 0 15-6.716 15-15v-219h43.649c17.99 0 35.396-6.474 49.013-18.23 13.616-11.756 22.561-28.031 25.186-45.828l14.507-98.374c1.28-8.682-1.274-17.471-7.01-24.114-5.735-6.643-14.057-10.454-22.833-10.454z" fill="#4a1c7a"/><g><path d="m255.998 209c-49.626 0-90-40.374-90-90s40.374-90 90-90 90 40.374 90 90-40.374 90-90 90z" fill="#ffd8aa"/></g><g><path d="m345.998 119c0-49.626-40.374-90-90-90v180c49.626 0 90-40.374 90-90z" fill="#fac88e"/></g><g><path d="m255.998 388.148c-3.839 0-7.678-1.464-10.606-4.394l-42.482-42.482c-7.681-7.681-11.911-17.893-11.911-28.755s4.23-21.074 11.911-28.755c14.455-14.456 37.175-15.732 53.089-3.831 15.914-11.902 38.634-10.624 53.089 3.83 7.681 7.681 11.911 17.894 11.911 28.755 0 10.862-4.23 21.075-11.911 28.755l-42.482 42.482c-2.93 2.931-6.769 4.395-10.608 4.395z" fill="#ff5e90"/></g><path d="m266.605 383.755 42.482-42.482c7.681-7.681 11.911-17.893 11.911-28.755s-4.23-21.074-11.911-28.755c-14.455-14.454-37.175-15.732-53.089-3.83v108.217c3.839-.002 7.678-1.466 10.607-4.395z" fill="#ec3d93"/></g></svg>