<svg height="512pt" viewBox="-9 0 512 512" width="512pt" xmlns="http://www.w3.org/2000/svg"><path d="m195.316406 338.882812v-44.898437c-50.203125-40.886719-43.617187-140.546875-43.617187-140.546875 77.140625-20.863281 116.78125-68.089844 116.78125-68.089844 27.289062 53.429688 73.410156 68.722656 73.410156 68.722656s5.828125 98.25-43.476563 139.351563l.242188.1875v45.273437s46.699219 24.472657 91.003906 49.324219c16.910156-103.683593 46.078125-388.207031-143.203125-388.207031-189.613281 0-160.011719 285.519531-143.117187 388.753906 44.589844-25.039062 91.976562-49.871094 91.976562-49.871094zm0 0" fill="#ca6d36"/><path d="m392.902344 366.859375c-45.234375-25.464844-94.246094-51.148437-94.246094-51.148437v23.171874s46.699219 24.472657 91.003906 49.324219c1.050782-6.453125 2.152344-13.605469 3.242188-21.347656zm0 0" fill="#ad5e2e"/><path d="m103.339844 388.753906c44.589844-25.039062 91.976562-49.871094 91.976562-49.871094v-23.171874c-.003906.003906-49.726562 26.058593-95.230468 51.699218 1.097656 7.75 2.203124 14.898438 3.253906 21.34375zm0 0" fill="#ad5e2e"/><path d="m298.65625 338.882812s135.394531 70.945313 163.808594 93.921876c22.871094 18.488281 29.683594 58.519531 31.46875 73.4375.367187 3.066406-2.027344 5.757812-5.113282 5.757812h-483.667968c-3.085938 0-5.484375-2.691406-5.1132815-5.757812 1.7851565-14.917969 8.5976565-54.949219 31.4687495-73.4375 28.414063-22.976563 163.8125-93.921876 163.8125-93.921876l36.953126 71.941407c6.152343 11.980469 23.273437 11.980469 29.425781 0zm0 0" fill="#ff94d4"/><path d="m2.042969 493.363281c-.984375 5.167969-1.613281 9.621094-2.0039065 12.878907-.3671875 3.066406 2.0273435 5.757812 5.1171875 5.757812h483.664062c3.085938 0 5.484376-2.691406 5.117188-5.753906-.390625-3.257813-1.023438-7.714844-2.007812-12.882813zm0 0" fill="#ff73c6"/><path d="m261.699219 410.824219 36.957031-71.941407v-45.273437c-12.949219 10.710937-29.710938 17.496094-51.410156 17.566406-21.917969.074219-38.851563-6.738281-51.925782-17.558593v45.265624l36.953126 71.941407c6.152343 11.980469 23.273437 11.980469 29.425781 0zm0 0" fill="#ffbd86"/><path d="m195.316406 293.617188v19c12.886719 10.496093 29.511719 17.125 50.957032 17.195312 22.179687.074219 39.242187-6.914062 52.382812-17.957031v-18.246094c-12.949219 10.710937-29.714844 17.496094-51.410156 17.566406-21.917969.070313-38.851563-6.738281-51.929688-17.558593zm0 0" fill="#ffa664"/><path d="m151.703125 153.4375s-10.40625 157.390625 94.570313 157.738281c104.980468.347657 95.617187-157.105469 95.617187-157.105469s-46.121094-15.289062-73.410156-68.71875c0 0-39.640625 47.222657-116.777344 68.085938zm0 0" fill="#fed2a4"/><path d="m246.273438 292.539062c-80.867188-.269531-93.261719-93.714843-94.691407-136.628906-.789062 19.945313-2.53125 154.945313 94.691407 155.265625 100.515624.332031 96.207031-143.976562 95.660156-156.253906-1.457032 42.125-13.761719 137.886719-95.660156 137.617187zm0 0" fill="#ffbd86"/><path d="m255.34375 222.152344c.804688 0 1.625-.015625 2.460938-.050782 4.285156-.179687 7.617187-3.796874 7.4375-8.082031-.179688-4.285156-3.789063-7.601562-8.082032-7.4375-3.898437.167969-10.765625-.074219-12.90625-3.480469-2.746094-4.363281.390625-14.679687 3.371094-20.28125 2.019531-3.769531.609375-8.472656-3.164062-10.5-3.773438-2.035156-8.484376-.621093-10.515626 3.152344-1.199218 2.226563-11.457031 22.128906-2.863281 35.863282 4.496094 7.183593 12.652344 10.816406 24.261719 10.816406zm0 0" fill="#ffa664"/><path d="m211.046875 168.207031c0-8.933593-5.640625-15.929687-12.84375-15.929687s-12.847656 6.996094-12.847656 15.929687c0 8.933594 5.644531 15.929688 12.847656 15.929688s12.84375-6.996094 12.84375-15.929688zm0 0" fill="#433f43"/><path d="m295.769531 184.136719c7.203125 0 12.847657-6.996094 12.847657-15.925781 0-8.933594-5.644532-15.933594-12.847657-15.933594-7.199219 0-12.84375 7-12.84375 15.933594 0 8.929687 5.644531 15.925781 12.84375 15.925781zm0 0" fill="#433f43"/><path d="m206.367188 230.792969c-3.585938 2.351562-4.585938 7.167969-2.234376 10.753906.632813.964844 15.808594 23.625 42.855469 23.625 27.042969 0 42.21875-22.660156 42.851563-23.625 2.351562-3.585937 1.351562-8.402344-2.234375-10.753906-3.585938-2.351563-8.398438-1.351563-10.753907 2.234375-.109374.167968-11.113281 16.613281-29.867187 16.613281-18.53125 0-29.773437-16.476563-29.867187-16.613281-2.351563-3.585938-7.164063-4.585938-10.75-2.234375zm0 0" fill="#ff646f"/></svg>