<svg id="Layer_1" enable-background="new 0 0 496 496" height="512" viewBox="0 0 496 496" width="512" xmlns="http://www.w3.org/2000/svg"><path d="m248 192c-4.418 0-8-3.582-8-8v-72c0-44.112 35.888-80 80-80h32c4.418 0 8 3.582 8 8s-3.582 8-8 8h-32c-35.29 0-64 28.71-64 64v72c0 4.418-3.582 8-8 8z" fill="#ef6767"/><path d="m320 80c-7.065 0-10.711-8.602-5.657-13.657l26.344-26.343-26.344-26.343c-3.124-3.125-3.124-8.189 0-11.314 3.125-3.123 8.189-3.123 11.314 0l32 32c3.124 3.125 3.124 8.189 0 11.314l-32 32c-1.562 1.562-3.609 2.343-5.657 2.343z" fill="#ef6767"/><path d="m483.433 251.028c-26.856-26.814-73.279-7.942-73.279 30.356 0-14.822 2.1-31.953-13.974-48.026-29.828-29.828-81.411-8.799-81.411 33.719 0-12.58 1.394-28.819-13.974-44.187-29.704-29.704-81.411-9.004-81.411 33.73v-151.697c0-13.163-5.342-25.086-13.974-33.718-29.825-29.826-81.41-8.805-81.41 33.718v171.692l-43.4-43.4c-29.435-29.435-80.6-8.917-80.6 33.54 0 12.424 4.9 24.359 13.64 33.194l111.636 112.804c7.595 47.203 48.503 83.247 97.852 83.247h173.743c54.751 0 99.129-44.378 99.129-99.129 0-34.804 0-80.988 0-115.487 0-11.851-4.805-22.582-12.567-30.356z" fill="#f9cfac"/><g fill="#ffe4cc"><path d="m125.02 385.49-111.38-112.54c-5.52-5.58-9.51-12.4-11.7-19.79 7.972-26.89 37.541-40.863 63.34-30.19 12.041 4.991 13.8 8.73 58.72 53.65z"/><path d="m432.15 243.9c0 140.401-.1 137.64 0 137.64-12.15 0-22-9.85-22-22v-92.46c0-38.573-43.248-60.638-74.38-39.53v153.99c-11.564 0-21-9.369-21-21v-103.92c0-38.081-42.705-60.944-74.39-39.53 0 168.079-.1 164.45 0 164.45-11.598 0-21-9.402-21-21v-255.62c0-39.112-44.308-61.03-75.38-38.83 0 362.655-.519 335.721 1.28 346.66 7.59 47.21 48.5 83.25 97.85 83.25h153.74c54.748 0 99.13-44.382 99.13-99.13 0-34.804 0-80.951 0-115.49 0-32.779-35.386-53.435-63.85-37.48z"/></g></svg>