<?xml version="1.0" encoding="iso-8859-1"?>
<!-- Generator: Adobe Illustrator 19.0.0, SVG Export Plug-In . SVG Version: 6.00 Build 0)  -->
<svg version="1.1" id="Capa_1" xmlns="http://www.w3.org/2000/svg" xmlns:xlink="http://www.w3.org/1999/xlink" x="0px" y="0px"
	 viewBox="0 0 512 512" style="enable-background:new 0 0 512 512;" xml:space="preserve">
<path style="fill:#F4BA64;" d="M296.208,404.201l4.989,14.719l-2.996,1.79c-28.941,17.289-65.099,17.039-93.797-0.65l0,0
	l5.375-15.859H106.494V502h293v-97.799H296.208z"/>
<path d="M369.471,476.001c-0.66,0-1.31-0.07-1.96-0.2c-0.64-0.12-1.27-0.32-1.87-0.57s-1.18-0.55-1.729-0.92
	c-0.54-0.36-1.061-0.78-1.521-1.24c-1.859-1.86-2.93-4.44-2.93-7.07c0-0.65,0.07-1.31,0.2-1.95s0.319-1.27,0.569-1.87
	c0.25-0.61,0.56-1.19,0.92-1.73c0.36-0.55,0.78-1.06,1.24-1.52s0.98-0.88,1.521-1.24c0.55-0.36,1.13-0.67,1.729-0.92
	c0.601-0.25,1.23-0.44,1.87-0.57c3.25-0.66,6.7,0.41,9.021,2.73c1.869,1.86,2.939,4.44,2.939,7.07s-1.07,5.21-2.939,7.07
	C374.681,474.931,372.101,476.001,369.471,476.001z"/>
<path style="fill:#FFDAAE;" d="M218.258,114.422l-105.036,77.484v36.67c0,68.998,46.141,126.774,108.052,141.713l-16.87,49.772l0,0
	c28.699,17.689,64.856,17.939,93.797,0.65l2.996-1.79l-16.483-48.632c61.911-14.939,108.052-72.715,108.052-141.713v-36.67
	C366.404,188.797,218.258,114.422,218.258,114.422z"/>
<path d="M278.987,312.689c-2.602,0-5.2-1.009-7.16-3.019c-5.691-5.836-12.204-8.921-18.833-8.921s-13.141,3.085-18.833,8.921
	c-3.855,3.955-10.187,4.034-14.141,0.178c-3.954-3.856-4.034-10.187-0.178-14.141c9.406-9.646,21.18-14.958,33.151-14.958
	s23.745,5.312,33.151,14.958c3.856,3.954,3.776,10.285-0.178,14.141C284.023,311.745,281.503,312.689,278.987,312.689z"/>
<polygon style="fill:#A4CDFF;" points="495.997,97.81 459.498,97.81 449.975,10.001 365.174,97.81 407.609,97.811 417.09,182.446 
	"/>
<path style="fill:#FF5A5A;" d="M441.494,295.494V174.751c0-5.908-0.318-11.742-0.924-17.489l-23.479,25.184l-9.482-84.635
	l-42.434-0.002L398.28,63.53C368.159,30.634,324.863,10,276.745,10h-47.5c-90.989,0-164.75,73.761-164.75,164.75v120.743
	c-27.271,3.005-48.488,26.112-48.488,54.184l0,0c0,30.113,24.411,54.524,54.524,54.524h139.25l11.494-33.913
	c-61.911-14.939-108.052-72.715-108.052-141.713v-36.67l105.036-77.484c0,0,148.146,74.375,174.508,77.484v36.67
	c0,68.998-46.141,126.774-108.052,141.713l11.495,33.913h139.25c30.112,0,54.524-24.411,54.524-54.524l0,0
	C489.982,321.606,468.765,298.499,441.494,295.494z"/>
<path d="M353.24,201.918c2.888-4.708,1.411-10.865-3.297-13.752c-4.71-2.887-10.866-1.411-13.752,3.297
	c-8.462,13.8-23.928,20.799-37.606,17.02c-5.326-1.473-10.831,1.654-12.302,6.978c-1.47,5.323,1.654,10.83,6.978,12.301
	c1.227,0.339,2.463,0.611,3.703,0.849c0.098,2.118,0.534,4.247,1.39,6.292l0.001,0.001c2.897,6.92,9.625,11.093,16.695,11.093
	c2.323,0,4.685-0.451,6.957-1.403c4.453-1.865,7.913-5.352,9.743-9.819c1.637-3.993,1.784-8.339,0.468-12.396
	C340.53,217.645,347.863,210.688,353.24,201.918z"/>
<path d="M207.403,208.483c-13.68,3.777-29.145-3.221-37.607-17.02c-2.887-4.709-9.045-6.185-13.752-3.297
	c-4.708,2.887-6.185,9.044-3.297,13.752c5.379,8.771,12.711,15.728,21.022,20.461c-1.316,4.058-1.167,8.403,0.468,12.396
	c1.831,4.467,5.291,7.954,9.743,9.818c2.249,0.942,4.614,1.413,6.981,1.413c2.32,0,4.641-0.453,6.853-1.359
	c4.468-1.831,7.955-5.291,9.819-9.745v0.001c0.856-2.045,1.293-4.174,1.391-6.293c1.24-0.238,2.476-0.51,3.703-0.849
	c5.324-1.47,8.448-6.977,6.978-12.301C218.234,210.136,212.725,207.012,207.403,208.483z"/>
<path d="M495.997,87.81h-27.525l-8.556-78.888c-0.418-3.858-3.03-7.125-6.701-8.382c-3.672-1.259-7.738-0.277-10.434,2.514
	l-44.544,46.124C365.779,17.811,322.083,0.001,276.743,0.001h-47.5c-96.357,0-174.75,78.393-174.75,174.75v112.415
	c-28.19,7.165-48.488,32.623-48.488,62.511c0,35.579,28.945,64.524,64.523,64.524h25.964V502c0,5.523,4.477,10,10,10h293
	c5.522,0,10-4.477,10-10v-87.799h25.965c35.578,0,64.523-28.945,64.523-64.524c0-29.888-20.298-55.346-48.488-62.511V174.751
	c0-4.62-0.186-9.294-0.555-13.945l52.374-56.176c2.715-2.912,3.443-7.157,1.855-10.807C503.58,90.172,499.979,87.81,495.997,87.81z
	 M389.493,492.001h-273v-16h211.393c5.522,0,10-4.477,10-10s-4.478-10-10-10H116.493v-41.799h79.337l-0.897,2.649
	c-1.496,4.415,0.256,9.277,4.224,11.723c1.007,0.62,2.021,1.221,3.043,1.803c0.319,0.182,0.643,0.35,0.964,0.528
	c0.706,0.392,1.41,0.786,2.122,1.16c0.398,0.209,0.801,0.402,1.202,0.605c0.641,0.326,1.281,0.656,1.927,0.967
	c0.43,0.207,0.865,0.398,1.297,0.598c0.622,0.289,1.243,0.583,1.87,0.859c0.456,0.2,0.917,0.385,1.375,0.578
	c0.608,0.256,1.214,0.519,1.825,0.763c0.475,0.19,0.954,0.363,1.432,0.545c0.601,0.229,1.199,0.464,1.803,0.681
	c0.486,0.175,0.976,0.334,1.464,0.501c0.599,0.205,1.197,0.416,1.799,0.609c0.497,0.16,0.997,0.303,1.495,0.455
	c0.598,0.182,1.195,0.369,1.795,0.54c0.505,0.143,1.014,0.271,1.521,0.406c0.597,0.159,1.193,0.324,1.792,0.472
	c0.512,0.126,1.026,0.238,1.539,0.356c0.599,0.138,1.197,0.281,1.798,0.408c0.517,0.109,1.036,0.203,1.554,0.304
	c0.598,0.116,1.196,0.238,1.796,0.343c0.526,0.092,1.053,0.17,1.58,0.254c0.596,0.095,1.19,0.194,1.787,0.278
	c0.53,0.074,1.061,0.135,1.591,0.201c0.596,0.074,1.192,0.152,1.789,0.216c0.533,0.056,1.068,0.099,1.602,0.147
	c0.595,0.053,1.189,0.111,1.785,0.153c0.539,0.039,1.078,0.064,1.617,0.093c0.592,0.033,1.185,0.069,1.778,0.091
	c0.541,0.02,1.083,0.027,1.624,0.039c0.591,0.013,1.182,0.028,1.773,0.03c0.114,0,0.227,0.006,0.341,0.006
	c0.459,0,0.919-0.017,1.378-0.023c0.543-0.008,1.086-0.011,1.629-0.027c0.578-0.018,1.156-0.049,1.734-0.076
	c0.54-0.026,1.079-0.047,1.619-0.081c0.58-0.037,1.16-0.088,1.74-0.135c0.536-0.044,1.072-0.082,1.607-0.135
	c0.583-0.057,1.165-0.128,1.747-0.196c0.531-0.061,1.063-0.117,1.593-0.187c0.586-0.077,1.171-0.169,1.756-0.257
	c0.524-0.079,1.048-0.151,1.571-0.238c0.591-0.098,1.179-0.212,1.768-0.321c0.516-0.095,1.033-0.184,1.547-0.288
	c0.591-0.119,1.18-0.254,1.77-0.383c0.51-0.112,1.021-0.218,1.53-0.338c0.594-0.141,1.185-0.297,1.777-0.449
	c0.501-0.128,1.003-0.249,1.503-0.385c0.596-0.162,1.189-0.342,1.782-0.515c0.492-0.144,0.986-0.28,1.477-0.432
	c0.598-0.185,1.191-0.387,1.786-0.583c0.483-0.159,0.967-0.311,1.448-0.477c0.602-0.209,1.2-0.435,1.8-0.656
	c0.469-0.173,0.94-0.337,1.407-0.517c0.605-0.233,1.205-0.484,1.806-0.73c0.457-0.186,0.917-0.364,1.372-0.557
	c0.618-0.263,1.231-0.544,1.846-0.82c0.432-0.194,0.866-0.378,1.296-0.578c0.642-0.299,1.277-0.617,1.915-0.931
	c0.398-0.196,0.799-0.381,1.195-0.583c0.697-0.354,1.387-0.729,2.078-1.1c0.33-0.177,0.663-0.344,0.991-0.525
	c1.016-0.561,2.026-1.14,3.028-1.739l2.996-1.79c3.035-1.813,4.811-5.03,4.871-8.409c0.02-1.126-0.15-2.271-0.529-3.387
	l-0.257-0.758l-0.254-0.751h79.337v77.795H389.493z M275.243,373.499l11.494,33.913v0.001l2.353,6.944
	c-9.245,4.844-19.163,7.772-29.22,8.788c-2.321,0.234-4.649,0.367-6.978,0.398c-12.421,0.165-24.865-2.566-36.336-8.185
	l14.187-41.858c0.901-2.66,0.643-5.576-0.712-8.036c-1.355-2.46-3.683-4.236-6.413-4.896
	c-59.112-14.264-100.397-68.541-100.397-131.992v-31.62l96.042-70.85c27.153,13.545,126.856,62.765,163.502,73.692v28.777
	c0,63.451-41.285,117.728-100.397,131.992c-2.73,0.659-5.058,2.436-6.413,4.896S274.342,370.839,275.243,373.499z M479.982,349.678
	c0,24.551-19.973,44.524-44.523,44.524h-35.965h-96.115l-5.815-17.157c28.253-9.156,53.633-27.067,72.306-51.225
	c21.214-27.446,32.897-61.981,32.897-97.244v-36.669c0-5.07-3.794-9.337-8.829-9.931c-17.931-2.115-114.521-48.04-171.192-76.49
	c-3.365-1.689-7.393-1.345-10.423,0.89L107.286,183.86c-2.555,1.885-4.063,4.872-4.063,8.047v36.669
	c0,35.263,11.683,69.798,32.897,97.244c3.501,4.53,7.238,8.84,11.185,12.913c17.106,17.653,38.165,30.872,61.121,38.312
	l-5.815,17.157h-96.116H70.529c-24.55,0-44.523-19.973-44.523-44.524c0-22.737,17.017-41.757,39.583-44.244
	c5.068-0.559,8.905-4.841,8.905-9.94V174.751c0-85.33,69.42-154.75,154.75-154.75h47.5c40.155,0,78.863,15.768,107.61,43.553
	l-26.373,27.309c-0.348,0.361-0.666,0.743-0.951,1.144c-1.142,1.601-1.773,3.488-1.848,5.414c-0.057,1.445,0.199,2.911,0.788,4.296
	c1.567,3.694,5.191,6.093,9.204,6.093l33.493,0.002l8.486,75.749c0.434,3.881,3.089,7.154,6.798,8.381
	c0.427,0.141,0.861,0.245,1.295,0.327c0.056,0.01,0.111,0.024,0.167,0.033c0.411,0.07,0.823,0.11,1.235,0.128
	c0.077,0.003,0.154,0.008,0.23,0.009c0.071,0.002,0.141,0.008,0.212,0.008c0.354,0,0.706-0.021,1.056-0.058
	c0.069-0.007,0.136-0.023,0.205-0.032c0.349-0.044,0.694-0.108,1.035-0.189c0.128-0.03,0.255-0.064,0.382-0.099
	c0.314-0.087,0.623-0.19,0.928-0.308c0.091-0.035,0.185-0.064,0.275-0.102c0.379-0.159,0.748-0.344,1.106-0.551
	c0.097-0.056,0.19-0.12,0.285-0.179c0.274-0.17,0.54-0.354,0.798-0.551c0.101-0.077,0.201-0.153,0.299-0.234
	c0.33-0.273,0.65-0.561,0.947-0.879l7.089-7.604v113.832c0,5.099,3.837,9.381,8.904,9.94
	C462.964,307.92,479.982,326.941,479.982,349.678z M433.259,150.439c-0.001,0.001-0.002,0.002-0.004,0.003l-8.648,9.277
	l-7.061-63.021c-0.035-0.316-0.085-0.628-0.149-0.934c-0.955-4.59-5.014-7.953-9.789-7.953l-18.876-0.001l53.603-55.504
	l7.222,66.582c0.55,5.076,4.836,8.922,9.941,8.922h13.504L433.259,150.439z"/>
<g>
</g>
<g>
</g>
<g>
</g>
<g>
</g>
<g>
</g>
<g>
</g>
<g>
</g>
<g>
</g>
<g>
</g>
<g>
</g>
<g>
</g>
<g>
</g>
<g>
</g>
<g>
</g>
<g>
</g>
</svg>
