<svg id="Layer_1" enable-background="new 0 0 256 256" height="512" viewBox="0 0 256 256" width="512" xmlns="http://www.w3.org/2000/svg"><path d="m151.01 191.418h-9.675c-.021-.001-.041-.004-.062-.004l-.003.004h-63.644c-16.813 0-30.443 13.63-30.443 30.443v15.271 4.336 8.031h134.27v-8.031-4.336-15.271c0-16.813-13.63-30.443-30.443-30.443z" fill="#6bdddd"/><path d="m174.389 104.726c-.127 0-.251.016-.377.019v-5.589c0-32.671-26.726-59.156-59.693-59.156-32.969 0-59.694 26.485-59.694 59.156v5.589c-.127-.003-.25-.019-.377-.019-10.058 0-18.212 8.08-18.212 18.047s8.154 18.047 18.212 18.047c.661 0 1.311-.039 1.954-.107 6.16 26.17 29.832 45.671 58.117 45.671 28.284 0 51.957-19.501 58.117-45.671.642.068 1.293.107 1.954.107 10.058 0 18.212-8.08 18.212-18.047-.002-9.967-8.155-18.047-18.213-18.047z" fill="#f9cfcf"/><path d="m84.655 141.886c-7.282 0-13.207-5.924-13.207-13.206 0-1.104.896-2 2-2s2 .896 2 2c0 5.076 4.13 9.206 9.207 9.206 5.076 0 9.206-4.129 9.206-9.206 0-1.104.896-2 2-2s2 .896 2 2c0 7.282-5.924 13.206-13.206 13.206z" fill="#a4c9ff"/><path d="m84.655 133.886c-3.974 0-7.207-3.232-7.207-7.205v-12.01c0-3.973 3.233-7.206 7.207-7.206 3.973 0 7.205 3.233 7.205 7.206v12.01c0 3.972-3.232 7.205-7.205 7.205z" fill="#3762cc"/><path d="m143.7 141.886c-7.282 0-13.207-5.924-13.207-13.206 0-1.104.896-2 2-2s2 .896 2 2c0 5.076 4.13 9.206 9.207 9.206 5.076 0 9.205-4.129 9.205-9.206 0-1.104.896-2 2-2s2 .896 2 2c0 7.282-5.924 13.206-13.205 13.206z" fill="#a4c9ff"/><path d="m143.7 133.886c-3.974 0-7.207-3.232-7.207-7.205v-12.01c0-3.973 3.233-7.206 7.207-7.206 3.973 0 7.205 3.233 7.205 7.206v12.01c0 3.972-3.232 7.205-7.205 7.205z" fill="#3762cc"/><path d="m114.318 188.385c-28.25 0-52.539-18.652-59.653-45.569-11.343.224-20.629-8.851-20.629-20.043 0-10.512 8.2-19.161 18.589-19.983v-3.634c0-33.721 27.675-61.156 61.693-61.156s61.693 27.435 61.693 61.156v3.634c10.389.823 18.589 9.471 18.589 19.983 0 11.054-9.067 20.047-20.212 20.047-.138 0-.277-.001-.418-.005-7.113 26.918-31.402 45.57-59.652 45.57zm-58.115-49.671c.918 0 1.731.631 1.945 1.542 6.116 25.982 29.213 44.129 56.17 44.129s50.055-18.146 56.169-44.129c.231-.981 1.156-1.642 2.157-1.531.611.064 1.182.096 1.744.096 8.939 0 16.212-7.199 16.212-16.047 0-8.846-7.269-16.043-16.204-16.047-.162.011-.25.017-.339.019-.553.011-1.059-.193-1.443-.569-.386-.376-.603-.892-.603-1.431v-5.589c.001-31.517-25.88-57.157-57.693-57.157-31.812 0-57.693 25.64-57.693 57.156v5.589c0 .539-.217 1.054-.602 1.431-.385.375-.907.574-1.444.569-.089-.002-.177-.008-.265-.014-.003 0-.006 0-.009 0-9.001 0-16.269 7.197-16.269 16.042 0 8.849 7.272 16.047 16.211 16.047.563 0 1.133-.031 1.744-.096.072-.007.142-.01.212-.01z" fill="#3762cc"/><path d="m126.278 160.943c-1.104 0-2-.896-2-2 0-1.298-.565-2.555-1.636-3.633-.953-.961-2.257-1.712-3.77-2.173-.909-.276-1.943-.411-3.16-.411h-2.789c-1.217 0-2.25.134-3.16.411-1.513.46-2.816 1.211-3.771 2.173-1.07 1.079-1.635 2.335-1.635 3.633 0 1.104-.896 2-2 2s-2-.896-2-2c0-2.342.993-4.633 2.796-6.451 1.419-1.43 3.302-2.53 5.445-3.183 1.293-.393 2.707-.584 4.324-.584h2.789c1.617 0 3.031.191 4.324.584 2.145.653 4.028 1.753 5.446 3.183 1.803 1.818 2.796 4.109 2.796 6.451.001 1.104-.895 2-1.999 2z" fill="#3762cc"/><path d="m114.318 186.385c-9.754 0-18.959-2.321-27.087-6.433v10.338c0 14.955 12.124 27.079 27.079 27.079s27.079-12.124 27.079-27.079v-10.33c-8.123 4.108-17.323 6.425-27.071 6.425z" fill="#f9cfcf"/><path d="m181.453 251.5h-134.27c-1.104 0-2-.896-2-2v-27.639c0-17.889 14.554-32.443 32.443-32.443h7.605v-9.465c0-.695.361-1.34.953-1.704.592-.365 1.33-.395 1.95-.081 8.155 4.125 16.964 6.217 26.184 6.217 9.214 0 18.019-2.089 26.169-6.209.619-.314 1.358-.283 1.95.081s.952 1.009.952 1.704v9.458h7.62c17.89 0 32.443 14.554 32.443 32.443v27.638c.001 1.104-.894 2-1.999 2zm-132.27-4h130.27v-25.639c0-15.684-12.76-28.443-28.443-28.443h-9.648c-.545 0-1.066-.222-1.443-.616-.377-.393-.577-.923-.555-1.468.015-.347.026-.694.026-1.044v-7.169c-7.89 3.495-16.309 5.264-25.071 5.264-8.769 0-17.192-1.771-25.087-5.271v7.176c0 .351.013.699.027 1.047.022.544-.179 1.073-.556 1.466s-.898.615-1.442.615h-9.633c-15.684 0-28.443 12.759-28.443 28.443v25.639z" fill="#3762cc"/><path d="m97.64 95.131h-59.604v-20.695c0-32.135 26.051-58.186 58.186-58.186h16.737c8.46 0 15.319 6.859 15.319 15.319v32.925c0 16.92-13.717 30.637-30.638 30.637z" fill="#4671c6"/><path d="m189.652 93.082h-34.687c-14.739 0-26.687-11.948-26.687-26.687v-36.145c0-7.732 6.268-14 14-14 26.164 0 47.373 21.21 47.373 47.373v29.459z" fill="#4671c6"/><path d="m44.311 95.131v12.529c2.859-1.85 6.268-2.935 9.937-2.935.127 0 .251.016.377.019v-5.589c0-1.353.054-2.694.145-4.024z" fill="#4671c6"/><path d="m173.69 93.082c.206 1.998.321 4.022.321 6.073v5.589c.127-.003.25-.019.377-.019 3.663 0 7.066 1.081 9.922 2.925v-14.568z" fill="#4671c6"/><path d="m162.158 109.959h-5.91c-8.802 0-17.44-2.399-24.982-6.937l-2.705-1.627c-.946-.569-1.252-1.798-.683-2.745.569-.946 1.796-1.251 2.745-.683l2.705 1.627c6.919 4.164 14.845 6.365 22.92 6.365h5.91c1.104 0 2 .896 2 2s-.895 2-2 2z" fill="#3762cc"/><path d="m72.388 109.959h-5.91c-1.104 0-2-.896-2-2s.896-2 2-2h5.91c8.075 0 16.001-2.201 22.92-6.365l2.705-1.627c.946-.568 2.175-.263 2.745.683.569.947.264 2.176-.683 2.745l-2.705 1.627c-7.541 4.539-16.18 6.937-24.982 6.937z" fill="#3762cc"/><path d="m97.64 97.131h-59.604c-1.104 0-2-.896-2-2v-20.695c0-33.187 26.999-60.186 60.186-60.186h16.737c9.55 0 17.318 7.769 17.318 17.319v32.925c0 17.996-14.64 32.637-32.637 32.637zm-57.604-4h57.604c15.791 0 28.638-12.847 28.638-28.638v-32.924c0-7.344-5.975-13.319-13.319-13.319h-16.737c-30.981 0-56.186 25.205-56.186 56.186z" fill="#3762cc"/><path d="m189.651 95.082h-34.687c-15.818 0-28.687-12.869-28.687-28.687v-36.145c0-8.822 7.178-16 16-16 27.225 0 49.373 22.149 49.373 49.374v29.458c.001 1.105-.894 2-1.999 2zm-47.373-76.832c-6.617 0-12.001 5.383-12.001 12v36.146c0 13.612 11.075 24.687 24.688 24.687h32.687v-27.459c-.001-25.02-20.355-45.374-45.374-45.374z" fill="#3762cc"/><path d="m44.311 109.661c-.328 0-.657-.081-.956-.243-.644-.35-1.044-1.024-1.044-1.757v-12.53c0-1.104.896-2 2-2h10.459c.554 0 1.083.23 1.461.634.378.405.571.949.534 1.501-.094 1.387-.14 2.659-.14 3.889v5.589c0 .539-.217 1.054-.602 1.431-.385.375-.907.574-1.444.569-.089-.002-.177-.008-.265-.014-.008 0-.017 0-.025 0-3.205 0-6.256.903-8.892 2.609-.33.214-.708.322-1.086.322zm2-12.53v7.21c2.004-.853 4.133-1.377 6.314-1.551v-3.635c0-.662.012-1.333.037-2.024z" fill="#3762cc"/><path d="m184.311 109.651c-.378 0-.756-.107-1.085-.32-2.64-1.705-5.695-2.605-8.837-2.605-.153.011-.241.017-.331.019-.553.011-1.059-.193-1.443-.569-.386-.376-.603-.892-.603-1.431v-5.589c0-1.895-.104-3.87-.311-5.869-.059-.563.125-1.125.504-1.545.38-.42.919-.66 1.485-.66h10.62c1.104 0 2 .896 2 2v14.569c0 .732-.4 1.406-1.043 1.756-.298.163-.628.244-.956.244zm-8.299-6.86c2.176.174 4.3.696 6.299 1.545v-9.253h-6.441c.095 1.381.143 2.745.143 4.074v3.634z" fill="#3762cc"/><g fill="#a4c9ff"><path d="m146.964 75.5c-1.657 0-3-1.343-3-3v-63c0-1.657 1.343-3 3-3s3 1.343 3 3v63c0 1.657-1.343 3-3 3z"/><path d="m160.964 75.5c-1.657 0-3-1.343-3-3v-63c0-1.657 1.343-3 3-3s3 1.343 3 3v63c0 1.657-1.343 3-3 3z"/><path d="m174.964 96.082c-1.657 0-3-1.343-3-3v-83.582c0-1.657 1.343-3 3-3s3 1.343 3 3v83.582c0 1.657-1.343 3-3 3z"/><path d="m188.964 96.082c-1.657 0-3-1.343-3-3v-83.582c0-1.657 1.343-3 3-3s3 1.343 3 3v83.582c0 1.657-1.343 3-3 3z"/><path d="m202.964 120.167c-1.657 0-3-1.343-3-3v-107.667c0-1.657 1.343-3 3-3s3 1.343 3 3v107.667c0 1.656-1.343 3-3 3z"/><path d="m216.964 120.167c-1.657 0-3-1.343-3-3v-107.667c0-1.657 1.343-3 3-3s3 1.343 3 3v107.667c0 1.656-1.343 3-3 3z"/></g><path d="m165.523 45.14c-2.084 2.985-3.322 6.568-3.378 10.428-.148 10.175 8.239 18.872 18.753 19.405 11.431.579 20.888-8.208 20.888-19.13 0-3.964-1.246-7.647-3.38-10.703l-.005-.007-14.785-21.526c-.784-1.142-2.519-1.142-3.303 0l-14.784 21.525c-.001.001-.002.003-.003.004z" fill="#e0ebfc"/><path d="m181.932 77c-.378 0-.756-.01-1.136-.029-11.551-.585-20.815-10.199-20.651-21.432.061-4.136 1.354-8.128 3.738-11.543.004-.006.009-.013.014-.02l14.768-21.502c.741-1.08 1.975-1.724 3.3-1.724s2.559.645 3.3 1.725l14.784 21.525c.008.011.016.022.023.034 2.429 3.495 3.713 7.578 3.713 11.809 0 5.73-2.324 11.096-6.544 15.107-4.079 3.879-9.604 6.05-15.309 6.05zm-14.782-30.697c-1.918 2.754-2.957 5.967-3.006 9.294-.133 9.104 7.428 16.9 16.854 17.378 5.078.262 9.875-1.491 13.485-4.924 3.418-3.25 5.301-7.585 5.301-12.208 0-3.424-1.044-6.729-3.02-9.558-.02-.028-.038-.056-.057-.085l-14.742-21.462-14.789 21.525c-.007.014-.017.027-.026.04z" fill="#3762cc"/></svg>