<svg height="512" viewBox="0 0 58 58" width="512" xmlns="http://www.w3.org/2000/svg"><g id="Page-1" fill="none" fill-rule="evenodd"><g id="015---Anxiety" fill-rule="nonzero"><path id="Shape" d="m54.7 50.88v-.01c.4417409-2.6301757.387474-5.3197833-.16-7.93-.7220466-3.1964837-1.7639636-6.3121838-3.11-9.3l1.26-6.96v-.01c.2099159-1.2119838.3136428-2.4399772.31-3.67.0030201-3.0313349-.6199898-6.0306339-1.83-8.81l-1.29-2.51c-1.0282265-1.75820344-2.293418-3.36661173-3.76-4.78l-2.42-2.07c-8.7420461-6.43985968-20.6579539-6.43985968-29.4 0l-2.42 2.07c-1.466582 1.41338827-2.73177346 3.02179656-3.76 4.78l-1.29 2.51c-1.21001017 2.7793661-1.83302007 5.7786651-1.83 8.81-.00364282 1.2300228.10008415 2.4580162.31 3.67v.01l1.26 6.96c-1.34603643 2.9878162-2.38795336 6.1035163-3.11 9.3-.54747395 2.6102167-.60174094 5.2998243-.16 7.93v.01z" fill="#a56a43"/><path id="Shape" d="m47.78 25h2.22c1.6568542 0 3 1.3431458 3 3v3c0 1.6568542-1.3431458 3-3 3h-42c-1.65685425 0-3-1.3431458-3-3v-3c0-1.6568542 1.34314575-3 3-3z" fill="#f9c795"/><path id="Shape" d="m44.65 40c-.4413022.706179-.9396306 1.3750761-1.49 2h-28.32c-.5503694-.6249239-1.0486978-1.293821-1.49-2-2.5768216-4.2289842-3.70709083-9.1818097-3.22-14.11.04-.4.25-3.89.5-6.39.1387677-1.4414129 1.2958684-2.5731756 2.74-2.68 3.82-.28 11.37-1.36 14.85-5.45.192252-.2325694.4782561-.3672179.78-.3672179s.587748.1346485.78.3672179c3.48 4.09 11.03 5.17 14.85 5.45 1.4441316.1068244 2.6012323 1.2385871 2.74 2.68.25 2.5.46 5.99.5 6.39.4870908 4.9281903-.6431784 9.8810158-3.22 14.11z" fill="#fdd7ad"/><path id="Shape" d="m44.65 40c-.4413022.706179-.9396306 1.3750761-1.49 2h-28.32c-.5503694-.6249239-1.0486978-1.293821-1.49-2h.07c.7948702-1.8212771 2.5928241-2.9989762 4.58-3h8c1.0862356.0030333 2.1409835.3651634 3 1.03.8590165-.6648366 1.9137644-1.0269667 3-1.03h8c1.9871759.0010238 3.7851298 1.1787229 4.58 3z" fill="#f9c795"/><path id="Shape" d="m16 25.276c-.4408769.0005403-.8300902-.2877099-.9581268-.709586-.1280366-.421876.0353166-.8778265.4021268-1.122414 1.9626412-1.2742027 4.2206383-2.0208985 6.556-2.168.5522847 0 1 .4477153 1 1s-.4477153 1-1 1c-1.9394975.1464369-3.8114416.7762627-5.445 1.832-.1643469.1095861-.3574677.1680443-.555.168z" fill="#a56a43"/><path id="Shape" d="m22.006 32.378c1.675946-.3675428 2.9027894-1.8051005 3.0023262-3.5179856.0995369-1.7128851-.9525361-3.2828721-2.5746289-3.8420661-1.6220927-.559194-3.4181481.0289402-4.3952996 1.4392798-.9771516 1.4103396-.8968138 3.2985298.1966023 4.6207719z" fill="#ecf0f1"/><path id="Shape" d="m42 25.276c-.1967481-.0000537-.3891089-.0581446-.553-.167-1.6357078-1.0529579-3.5074865-1.6828405-5.447-1.833-.5522847 0-1-.4477153-1-1s.4477153-1 1-1c2.3350177.147271 4.5926498.89396 6.555 2.168.3666557.2444851.5300428.7001723.4022708 1.1219349s-.5165789.710164-.9572708.7100651z" fill="#a56a43"/><path id="Shape" d="m39.765 31.079c1.0877308-1.3196567 1.1655409-3.2015581.1904629-4.6065047-.9750779-1.4049467-2.7652954-1.9903772-4.3820813-1.4330126-1.616786.5573645-2.6659274 2.1216246-2.5680807 3.8289846.0978466 1.70736 1.3188238 3.1415225 2.9886991 3.5105327z" fill="#ecf0f1"/><path id="Shape" d="m31 35h-4c-.5522847 0-1-.4477153-1-1s.4477153-1 1-1h4c.5522847 0 1 .4477153 1 1s-.4477153 1-1 1z" fill="#f9c795"/><path id="Shape" d="m47 46s11 4 11 12h-58c0-8 11-12 11-12z" fill="#2fa8cc"/><path id="Shape" d="m49.684 5.308c-.854.824-3.486 1.605-5.225 2.051-.3407503.10147289-.709649.00461281-.9565965-.25116921-.2469474-.25578202-.3307862-.62785624-.2174035-.96483079.505-1.722 1.377-4.326 2.23-5.15 1.195496-1.26613103 3.1895299-1.327816 4.461-.138 1.1448052 1.31172622 1.0142954 3.30200169-.292 4.453z" fill="#2fa8cc"/><path id="Shape" d="m55.2 14.968c-1.17.2-3.781-.656-5.465-1.276-.338518-.1092389-.5877739-.3982611-.6460812-.7491569-.0583072-.3508958.0840831-.7049965.3690812-.9178431 1.393-1.131 3.589-2.781 4.759-2.975 1.7024248-.36386797 3.3788622.71636379 3.751 2.417.1983198 1.7299736-1.0389392 3.2948738-2.768 3.501z" fill="#2fa8cc"/><path id="Shape" d="m8.316 5.308c.854.824 3.486 1.605 5.225 2.051.3407503.10147289.709649.00461281.9565965-.25116921.2469474-.25578202.3307862-.62785624.2174035-.96483079-.5-1.722-1.377-4.326-2.23-5.15-1.195496-1.26613103-3.1895299-1.327816-4.461-.138-1.14480523 1.31172622-1.01429537 3.30200169.292 4.453z" fill="#2fa8cc"/><path id="Shape" d="m2.805 14.968c1.17.2 3.781-.656 5.465-1.276.33851801-.1092389.58777394-.3982611.64608116-.7491569.05830721-.3508958-.08408305-.7049965-.36908116-.9178431-1.393-1.131-3.589-2.781-4.759-2.975-1.70242478-.36386797-3.37886224.71636379-3.751 2.417-.19831984 1.7299736 1.03893916 3.2948738 2.768 3.501z" fill="#2fa8cc"/><path id="Shape" d="m29 42v11h-14c-2.209139 0-4-1.790861-4-4v-5c.0032948-1.1032019.8967981-1.9967052 2-2h2c0-1.6568542 1.3431458-3 3-3h8c1.6543489.0060328 2.9939672 1.3456511 3 3z" fill="#fdd7ad"/><path id="Rectangle-path" d="m16 53h13v5h-13z" fill="#f9c795"/><path id="Shape" d="m47 44v5c0 2.209139-1.790861 4-4 4h-14v-11c.0060328-1.6543489 1.3456511-2.9939672 3-3h8c1.6568542 0 3 1.3431458 3 3h2c1.1032019.0032948 1.9967052.8967981 2 2z" fill="#fdd7ad"/><g fill="#f9c795"><path id="Rectangle-path" d="m29 53h13v5h-13z" transform="matrix(-1 0 0 -1 71 111)"/><path id="Shape" d="m20 46c-.5522847 0-1-.4477153-1-1v-6c0-.5522847.4477153-1 1-1s1 .4477153 1 1v6c0 .5522847-.4477153 1-1 1z"/><path id="Shape" d="m24 46c-.5522847 0-1-.4477153-1-1v-6c0-.5522847.4477153-1 1-1s1 .4477153 1 1v6c0 .5522847-.4477153 1-1 1z"/><path id="Shape" d="m34 46c-.5522847 0-1-.4477153-1-1v-6c0-.5522847.4477153-1 1-1s1 .4477153 1 1v6c0 .5522847-.4477153 1-1 1z"/><path id="Shape" d="m38 46c-.5522847 0-1-.4477153-1-1v-6c0-.5522847.4477153-1 1-1s1 .4477153 1 1v6c0 .5522847-.4477153 1-1 1z"/><path id="Shape" d="m15 42v3c0 .5522847-.4477153 1-1 1s-1-.4477153-1-1v-3z"/><path id="Shape" d="m45 42v3c0 .5522847-.4477153 1-1 1s-1-.4477153-1-1v-3z"/><path id="Shape" d="m30 39.77v13.23h-2v-13.23c.6411361.5630056 1.0060548 1.3767743 1 2.23-.0060548-.8532257.3588639-1.6669944 1-2.23z"/></g><circle id="Oval" cx="22" cy="29" fill="#35495e" r="2"/><circle id="Oval" cx="36" cy="29" fill="#35495e" r="2"/><path id="Shape" d="m23 34.272c-.2653486.0007185-.5199469-.1047939-.707-.293-1.609535-1.539336-3.8734454-2.1881441-6.054-1.735-.3469049.086101-.7133926-.0194099-.9614107-.2767879-.2480181-.2573779-.3398868-.627521-.241-.971.0988868-.3434789.3735058-.6081111.7204107-.6942121 2.8614369-.6146019 5.8411899.233597 7.95 2.263.2859079.2859943.3714219.7160366.216678 1.0896546-.1547439.3736179-.5192821.6172591-.923678.6173454z" fill="#f9c795"/><path id="Shape" d="m35 34.272c-.4043959-.0000863-.7689341-.2437275-.923678-.6173454-.1547439-.373618-.0692299-.8036603.216678-1.0896546 2.1088101-2.029403 5.0885631-2.8776019 7.95-2.263.5362685.1331006.8631006.6757315.73 1.212-.1331007.5362685-.6757315.8631006-1.212.73-2.180548-.4529661-4.4443763.1958185-6.054 1.735-.1870531.1882061-.4416514.2937185-.707.293z" fill="#f9c795"/><circle id="Oval" cx="21" cy="28" fill="#ecf0f1" r="1"/><circle id="Oval" cx="35" cy="28" fill="#ecf0f1" r="1"/></g></g></svg>