<?xml version="1.0" encoding="iso-8859-1"?>
<!-- Generator: Adobe Illustrator 19.0.0, SVG Export Plug-In . SVG Version: 6.00 Build 0)  -->
<svg version="1.1" id="Capa_1" xmlns="http://www.w3.org/2000/svg" xmlns:xlink="http://www.w3.org/1999/xlink" x="0px" y="0px"
	 viewBox="0 0 512 512" style="enable-background:new 0 0 512 512;" xml:space="preserve">
<path style="fill:#A45E43;" d="M252.689,300.001v-15l45-0.001c23.435,0,42.5-19.065,42.5-42.5s-19.065-42.5-42.5-42.5h-45v-15h45
	c31.706,0,57.5,25.794,57.5,57.5s-25.794,57.5-57.5,57.5L252.689,300.001z"/>
<path style="fill:#C27749;" d="M252.689,300.001v-15l-45-0.001c-23.435,0-42.5-19.065-42.5-42.5s19.065-42.5,42.5-42.5h45v-15h-45
	c-31.706,0-57.5,25.794-57.5,57.5s25.794,57.5,57.5,57.5L252.689,300.001z"/>
<path style="fill:#49C9FF;" d="M190.315,497.383l24.872-8.291V282.498h15v212c0,3.228-2.065,6.094-5.128,7.115l-30,10
	c-3.93,1.31-8.178-0.814-9.487-4.744C184.266,502.94,186.387,498.692,190.315,497.383z"/>
<g>
	<path style="fill:#2DADE3;" d="M356.683,497.383l-24.874-8.291v-80.969c0-0.521-0.054-1.041-0.162-1.55l-17.958-85l-14.676,3.101
		l17.796,84.233v85.591c0,3.228,2.066,6.094,5.128,7.115c0.001,0,30.001,10,30.001,10c3.93,1.31,8.178-0.814,9.487-4.744
		C362.731,502.94,360.611,498.692,356.683,497.383z"/>
	<path style="fill:#2DADE3;" d="M277.689,172.5h-30v120h50v-100C297.689,181.454,288.735,172.5,277.689,172.5z"/>
</g>
<path style="fill:#49C9FF;" d="M247.689,172.5h-20c-11.046,0-20,8.954-20,20v100h60v-100
	C267.689,181.454,258.735,172.5,247.689,172.5z"/>
<path style="fill:#FF4128;" d="M311.659,291.04c-2.15-10.8-6.97-20.61-13.97-28.54h-30l26.93,90h30
	C324.619,352.5,314.729,306.44,311.659,291.04z"/>
<path style="fill:#FF6337;" d="M281.659,291.04c-2.15-10.8-6.97-20.61-13.97-28.54h-60c-9.329,10.575-15,24.454-15,39.665V352.5
	h101.93C294.619,352.5,284.729,306.44,281.659,291.04z"/>
<path style="fill:#FFE2A8;" d="M252.689,7.5v135c37.279,0,67.5-30.221,67.5-67.5S289.968,7.5,252.689,7.5z"/>
<path style="fill:#FFF0D3;" d="M290.189,75c0-37.279-16.789-67.5-37.5-67.5c-37.279,0-67.5,30.221-67.5,67.5s30.221,67.5,67.5,67.5
	C273.4,142.5,290.189,112.279,290.189,75z"/>
<path style="fill:#FFCB63;" d="M252.689,150c-41.355,0-75-33.645-75-75s33.645-75,75-75s75,33.645,75,75S294.044,150,252.689,150z
	 M252.689,15c-33.084,0-60,26.916-60,60s26.916,60,60,60s60-26.916,60-60S285.773,15,252.689,15z"/>
<path style="fill:#40211D;" d="M290.189,82.5h-37.5c-4.142,0-7.5-3.358-7.5-7.5V52.5c0-4.142,3.358-7.5,7.5-7.5s7.5,3.358,7.5,7.5
	v15h30c4.142,0,7.5,3.358,7.5,7.5S294.331,82.5,290.189,82.5z"/>
<g>
</g>
<g>
</g>
<g>
</g>
<g>
</g>
<g>
</g>
<g>
</g>
<g>
</g>
<g>
</g>
<g>
</g>
<g>
</g>
<g>
</g>
<g>
</g>
<g>
</g>
<g>
</g>
<g>
</g>
</svg>
