<svg height="480pt" viewBox="-8 0 480 480" width="480pt" xmlns="http://www.w3.org/2000/svg"><path d="m376 112c0 13.253906-10.746094 24-24 24s-24-10.746094-24-24 10.746094-24 24-24 24 10.746094 24 24zm0 0" fill="#31cccc"/><path d="m136 112c0 13.253906-10.746094 24-24 24s-24-10.746094-24-24 10.746094-24 24-24 24 10.746094 24 24zm0 0" fill="#31cccc"/><path d="m264 352c0-22.089844-14.328125-40-32-40s-32 17.910156-32 40 14.328125 40 32 40 32-17.910156 32-40zm0 0" fill="#d85b55"/><path d="m424 320v-112c0-8.835938-7.164062-16-16-16s-16 7.164062-16 16c0-8.835938-7.164062-16-16-16s-16 7.164062-16 16c0-8.835938-7.164062-16-16-16s-16 7.164062-16 16c0-8.835938-7.164062-16-16-16s-16 7.164062-16 16v272h152v-80l16-16v-104c-22.089844 0-40 17.910156-40 40zm0 0" fill="#ffaf1c"/><path d="m152 192c-8.835938 0-16 7.164062-16 16 0-8.835938-7.164062-16-16-16s-16 7.164062-16 16c0-8.835938-7.164062-16-16-16s-16 7.164062-16 16c0-8.835938-7.164062-16-16-16s-16 7.164062-16 16v112c0-22.089844-17.910156-40-40-40v104l16 16v80h152v-272c0-8.835938-7.164062-16-16-16zm0 0" fill="#ffaf1c"/><g fill="#3f4f4f"><path d="m432 88h-16c0-39.699219-32.296875-72-72-72v-16c48.523438 0 88 39.476562 88 88zm0 0"/><path d="m48 88h-16c0-48.523438 39.476562-88 88-88v16c-39.703125 0-72 32.300781-72 72zm0 0"/><path d="m248 264h-32c-2.304688 0-4.5-.996094-6.015625-2.730469-1.523437-1.734375-2.21875-4.039062-1.914063-6.328125l16-120 15.859376 2.117188-14.789063 110.941406h22.859375zm0 0"/></g></svg>
