<svg height="375pt" viewBox="-13 0 375 375.46667" width="375pt" xmlns="http://www.w3.org/2000/svg"><path d="m341.566406 341.332031-27.304687-264.199219c0-16.207031-13.140625-29.347656-29.347657-29.347656l-108.324218-20.476562-106.050782 20.476562c-16.207031 0-29.34375 13.140625-29.34375 29.347656l-34.132812 264.199219h68.265625v27.308594h197.972656v-27.308594zm0 0" fill="#94c1ff"/><path d="m273.300781 375.464844h-197.972656c-3.773437 0-6.828125-3.050782-6.828125-6.824219v-20.480469h-61.4375c-1.960938 0-3.835938-.847656-5.128906-2.320312-1.292969-1.472656-1.8906252-3.433594-1.644532-5.378906l34.078126-263.789063c.25-19.503906 16.007812-35.339844 35.488281-35.703125l105.4375-20.363281c.847656-.171875 1.714843-.167969 2.5625-.007813l107.730469 20.371094c19.515624.351562 35.300781 16.238281 35.5 35.796875l27.273437 263.867187c.195313 1.917969-.425781 3.839844-1.726563 5.273438-1.292968 1.433594-3.132812 2.253906-5.066406 2.253906h-61.441406v20.476563c.003906 3.777343-3.050781 6.828125-6.824219 6.828125zm-191.144531-13.652344h184.316406v-20.480469c0-3.773437 3.054688-6.824219 6.828125-6.824219h60.699219l-26.53125-256.675781c-.023438-.234375-.035156-.464843-.035156-.699219 0-12.417968-10.097656-22.519531-22.519532-22.519531-.425781 0-.851562-.039062-1.265624-.121093l-107.046876-20.234376-104.765624 20.230469c-.429688.085938-.863282.125-1.296876.125-12.417968 0-22.519531 10.101563-22.519531 22.519531 0 .292969-.019531.585938-.050781.875l-33.140625 256.5h60.5c3.773437 0 6.828125 3.050782 6.828125 6.824219zm0 0" fill="#0e65e5"/><path d="m217.546875 47.785156h-79.636719c-8.171875 0-14.792968-6.621094-14.792968-14.792968v-11.367188c0-8.171875 6.621093-14.796875 14.792968-14.796875h79.636719c8.171875 0 14.792969 6.625 14.792969 14.796875v11.367188c0 8.171874-6.621094 14.792968-14.792969 14.792968zm0 0" fill="#2a8ee6" fill-rule="evenodd"/><g fill="#0e65e5"><path d="m217.546875 54.613281h-79.640625c-11.917969 0-21.617188-9.699219-21.617188-21.621093v-11.371094c0-11.921875 9.699219-21.621094 21.617188-21.621094h79.640625c11.921875 0 21.621094 9.699219 21.621094 21.621094v11.371094c0 11.921874-9.699219 21.621093-21.621094 21.621093zm-79.640625-40.960937c-4.390625 0-7.964844 3.574218-7.964844 7.96875v11.371094c0 4.394531 3.574219 7.96875 7.964844 7.96875h79.640625c4.394531 0 7.96875-3.574219 7.96875-7.96875v-11.371094c0-4.394532-3.574219-7.96875-7.96875-7.96875zm0 0"/><path d="m75.335938 348.160156c-.160157 0-.328126-.007812-.496094-.019531-3.757813-.265625-6.589844-3.535156-6.316406-7.292969l13.652343-191.148437c.265625-3.75 3.40625-6.6875 7.292969-6.320313 3.757812.269532 6.589844 3.535156 6.320312 7.292969l-13.65625 191.148437c-.25 3.59375-3.25 6.339844-6.796874 6.339844zm0 0"/><path d="m273.292969 348.160156c-3.546875 0-6.546875-2.746094-6.796875-6.339844l-13.65625-191.148437c-.269532-3.757813 2.5625-7.023437 6.320312-7.292969 3.863282-.390625 7.027344 2.570313 7.292969 6.320313l13.652344 191.148437c.273437 3.757813-2.558594 7.027344-6.316407 7.292969-.167968.011719-.335937.019531-.496093.019531zm0 0"/><path d="m48.019531 314.027344h-34.132812c-3.773438 0-6.824219-3.054688-6.824219-6.828125 0-3.773438 3.050781-6.824219 6.824219-6.824219h34.132812c3.773438 0 6.828125 3.050781 6.828125 6.824219 0 3.773437-3.054687 6.828125-6.828125 6.828125zm0 0"/><path d="m334.742188 314.027344h-34.132813c-3.773437 0-6.828125-3.054688-6.828125-6.828125 0-3.773438 3.054688-6.824219 6.828125-6.824219h34.132813c3.773437 0 6.824218 3.050781 6.824218 6.824219 0 3.773437-3.050781 6.828125-6.824218 6.828125zm0 0"/><path d="m75.328125 341.332031h197.972656v27.308594h-197.972656zm0 0"/><path d="m273.300781 375.464844h-197.972656c-3.773437 0-6.828125-3.050782-6.828125-6.824219v-27.308594c0-3.773437 3.054688-6.824219 6.828125-6.824219h197.972656c3.773438 0 6.828125 3.050782 6.828125 6.824219v27.308594c0 3.773437-3.054687 6.824219-6.828125 6.824219zm-191.144531-13.652344h184.316406v-13.652344h-184.316406zm0 0"/></g><path d="m232.339844 354.988281c-3.773438 0-6.824219-3.054687-6.824219-6.828125v-27.308594c0-3.773437 3.050781-6.824218 6.824219-6.824218 3.773437 0 6.828125 3.050781 6.828125 6.824218v27.308594c0 3.773438-3.054688 6.828125-6.828125 6.828125zm0 0" fill="#fff"/><path d="m245.996094 341.332031h-27.308594c-3.773438 0-6.828125-3.050781-6.828125-6.824219 0-3.773437 3.054687-6.828124 6.828125-6.828124h27.308594c3.773437 0 6.824218 3.054687 6.824218 6.828124 0 3.773438-3.050781 6.824219-6.824218 6.824219zm0 0" fill="#fff"/><path d="m61.675781 129.707031c-3.773437 0-6.828125-3.054687-6.828125-6.828125 0-1.324218 0-5.367187 4.304688-32.726562 1.960937-12.492188 11.175781-22.558594 23.476562-25.625l11.523438-2.882813c3.65625-.941406 7.359375 1.300781 8.277344 4.964844.917968 3.65625-1.308594 7.359375-4.96875 8.277344l-11.527344 2.878906c-6.964844 1.742187-12.179688 7.433594-13.285156 14.507813-3.847657 24.40625-4.148438 29.601562-4.148438 30.605468 0 3.773438-3.050781 6.828125-6.824219 6.828125zm0 0" fill="#fff"/></svg>