<svg id="Layer_1" enable-background="new 0 0 512 512" height="512" viewBox="0 0 512 512" width="512" xmlns="http://www.w3.org/2000/svg"><g><g><path d="m152.982 497.836h84.438l9.29-9.29v-17.812l-9.29-9.29-42.756-18.581-52.046 18.581v26.028c-.001 5.724 4.639 10.364 10.364 10.364z" fill="#e4eef9"/><path d="m237.419 461.443v36.393h18.581l9.29-18.196-9.29-18.197z" fill="#d5e0f2"/><path d="m349.728 497.836h-9.29-84.438v-36.393l47.973-18.581 46.829 18.581 9.29 9.29v16.738c.001 5.725-4.64 10.365-10.364 10.365z" fill="#e4eef9"/><path d="m350.802 461.443v26.028c0 5.724-4.64 10.365-10.365 10.365h18.581c5.724 0 10.365-4.641 10.365-10.365v-26.028z" fill="#d5e0f2"/><path d="m300.663 14.163h-89.326c-5.361 0-10.464 1.54-14.802 4.271l-18.355 32.303 77.82 114.981 77.819-114.98-7.227-18.772c-4.129-10.726-14.436-17.803-25.929-17.803z" fill="#ef7f0f"/><path d="m320.408 64.145-24.638 43.219-39.77 21.189c0-16.211 3.223-32.1 9.308-46.798 6.095-14.698 15.05-28.203 26.513-39.667l14.211-14.217 16.362 12.39z" fill="#e4eef9"/><path d="m307.89 31.662c.042.104.083.197.124.301l12.394 32.182 13.411-13.411-7.225-18.771c-.041-.104-.083-.197-.124-.301-2.218-5.587-6.126-10.158-11.008-13.226l-9.432 9.436c.708 1.203 1.335 2.465 1.86 3.79z" fill="#d5e0f2"/><path d="m178.18 50.733 12.865 31.446 46.374 27.793h9.29c0-16.211-5.699-40.465-9.285-46.203-4.871-7.796-10.643-15.077-17.246-21.68l-23.642-23.653c-4.882 3.068-8.79 7.639-11.008 13.226-.042.104-.083.197-.124.301z" fill="#e4eef9"/><path d="m237.419 63.772v46.2l18.581 18.581c0-16.211-3.223-32.1-9.308-46.798-2.584-6.231-5.687-12.245-9.273-17.983z" fill="#d5e0f2"/><path d="m8.633 433.422 19.757-3.317 12.495 13.136 11.35 10.72-5.93 17.672c-1.763 5.255-17.915 5.493-17.915 5.493l-19.582-5.602c-5.462-1.562-8.648-7.23-7.145-12.708z" fill="#e4eef9"/><path d="m40.885 443.241-9.813 29.673c-.556 1.657-1.494 3.083-2.682 4.212l8.586 2.456c5.329 1.525 10.914-1.413 12.677-6.668l8.221-24.5-4.873-10.021z" fill="#d5e0f2"/><path d="m113.922 91.142-9.293-8.322c-17.601 12.594-30.365 31.206-35.566 52.711l-68.744 284.218c-1.409 5.826 1.969 11.741 7.704 13.487l50.072 15.244c5.713 1.739 11.794-1.26 13.892-6.851l32.644-87.001 9.29-68.101v-195.385z" fill="#ffcf4d"/><path d="m104.631 354.628 18.581-49.52 18.581-115.918-18.581-116.628c-6.643 2.714-12.865 6.173-18.581 10.263z" fill="#ffb629"/><path d="m333.819 50.738 36.216 14.369 8.61 16.392.853 363.795c0 8.92-7.231 16.15-16.15 16.15h-9.29-98.058v-332.887z" fill="#ff5876"/><path d="m497.365 441.712-11.094-3.085-18.722-4.284-13.424 14.07 8.221 24.5c1.763 5.255 7.348 8.192 12.677 6.668l16.897-4.834s12.516-5.314 9.829-15.442z" fill="#e4eef9"/><path d="m510.336 458.815-6.969-25.393-10.272-6.148-6.824 11.353 7.435 27.07c.892 3.252.123 6.564-1.785 9.051l11.271-3.224c5.461-1.563 8.648-7.231 7.144-12.709z" fill="#d5e0f2"/><path d="m396.545 85.561c20.001 10.601 33.388 31.241 40.278 59.729l66.046 268.4c3.682 16.026-9.134 22.664-9.134 22.664l-7.464 2.272-32.367 9.854c-5.713 1.739-11.794-1.26-13.892-6.851l-51.225-136.522-9.29-100.117 9.29-113.464z" fill="#ffcf4d"/><path d="m511.681 419.749-68.743-284.218c-6.89-28.488-27.052-51.899-54.15-62.969l-9.29 9.708 9.29 9.257c18.227 12.599 31.464 31.562 36.784 53.558l68.743 284.218c.59 2.441.331 4.893-.58 7.052l10.241-3.118c5.735-1.747 9.114-7.661 7.705-13.488z" fill="#ffb629"/><path d="m178.181 50.738-54.115 21.471c-.287.114-.568.237-.853.354v372.732c0 8.92 7.231 16.15 16.15 16.15h116.637v-332.888z" fill="#ff5876"/><g fill="#e6485d"><path d="m237.419 109.976v351.467h18.581v-332.886z"/><path d="m387.935 72.208-17.9-7.102c.057 4.563.115 7.432.172 7.455v372.732c0 8.92-7.231 16.15-16.15 16.15h18.581c8.92 0 16.15-7.231 16.15-16.15v-372.731c-.285-.117-.567-.24-.853-.354z"/></g></g><g><g fill="#e6e2e6"><path d="m283.742 166.363c-4.284 0-7.757 3.473-7.757 7.757v7.313c0 4.284 3.473 7.757 7.757 7.757s7.757-3.473 7.757-7.757v-7.313c0-4.284-3.473-7.757-7.757-7.757z"/><path d="m283.742 241.728c-4.284 0-7.757 3.473-7.757 7.757v7.313c0 4.284 3.473 7.757 7.757 7.757s7.757-3.473 7.757-7.757v-7.313c0-4.284-3.473-7.757-7.757-7.757z"/><path d="m283.742 317.093c-4.284 0-7.757 3.473-7.757 7.757v7.313c0 4.284 3.473 7.757 7.757 7.757s7.757-3.473 7.757-7.757v-7.313c0-4.284-3.473-7.757-7.757-7.757z"/><path d="m283.742 392.458c-4.284 0-7.757 3.473-7.757 7.757v7.313c0 4.284 3.473 7.757 7.757 7.757s7.757-3.473 7.757-7.757v-7.313c0-4.284-3.473-7.757-7.757-7.757z"/></g><path d="m149.208 405.125c1.835 0 3.678-.647 5.156-1.964 1.105-.983 27.112-24.611 33.299-71.027.566-4.246-2.417-8.148-6.664-8.714-4.243-.565-8.147 2.418-8.714 6.664-2.812 21.096-10.322 36.669-16.127 46.018-6.327 10.19-12.075 15.439-12.11 15.471-5.334 4.69-1.838 13.624 5.16 13.552z" fill="#e4eef9"/><path d="m331.002 323.42c-4.247.566-7.23 4.467-6.664 8.714 6.186 46.416 32.194 70.044 33.299 71.027 7.873 6.537 17.699-4.452 10.338-11.568-.057-.052-5.805-5.301-12.132-15.491-5.805-9.349-13.315-24.922-16.127-46.018-.566-4.246-4.469-7.232-8.714-6.664z" fill="#e4eef9"/></g></g></svg>