<?xml version="1.0" encoding="iso-8859-1"?>
<!-- Generator: Adobe Illustrator 19.0.0, SVG Export Plug-In . SVG Version: 6.00 Build 0)  -->
<svg version="1.1" id="Capa_1" xmlns="http://www.w3.org/2000/svg" xmlns:xlink="http://www.w3.org/1999/xlink" x="0px" y="0px"
	 viewBox="0 0 512 512" style="enable-background:new 0 0 512 512;" xml:space="preserve">
<polygon style="fill:#4398D1;" points="379.586,0 132.414,0 105.931,503.172 194.207,512 256,132.414 317.793,512 406.069,503.172 
	"/>
<path style="fill:#126099;" d="M384.265,88.276h-2.56c-17.32-9.251-30.084-25.212-35.31-44.138h35.31l-0.883-17.655H264.828V0
	h-17.655v26.483h-17.655V0h-17.655v26.483h-80.861l-0.883,17.655h35.31c-5.226,18.926-17.991,34.887-35.31,44.138h-2.56
	l-0.883,17.655h5.738c1.386-0.009,2.745-0.344,3.972-0.971c24.214-12.006,41.631-34.401,47.316-60.822h28.16v31.161
	c-0.124,27.551,15.466,52.762,40.166,64.971c1.227,0.627,2.586,0.962,3.972,0.971c1.651,0.009,3.275-0.45,4.679-1.324
	c2.586-1.615,4.158-4.449,4.149-7.503V44.138h63.47c5.685,26.421,23.102,48.817,47.316,60.822c1.227,0.627,2.586,0.962,3.972,0.971
	h5.561L384.265,88.276z M247.172,115.73c-11.299-10.399-17.699-25.07-17.655-40.43V44.138h17.655V115.73z"/>
<g>
	<path style="fill:#3E8CC7;" d="M105.931,503.172L194.207,512l28.513-175.139c-34.569,23.667-71.857,43.105-111.051,57.909
		L105.931,503.172z"/>
	<path style="fill:#3E8CC7;" d="M281.688,290.074L317.793,512l88.276-8.828L388.414,166.4
		C357.685,211.571,321.871,253.069,281.688,290.074z"/>
</g>
<g>
</g>
<g>
</g>
<g>
</g>
<g>
</g>
<g>
</g>
<g>
</g>
<g>
</g>
<g>
</g>
<g>
</g>
<g>
</g>
<g>
</g>
<g>
</g>
<g>
</g>
<g>
</g>
<g>
</g>
</svg>
