<svg height="512pt" viewBox="0 0 511 512" width="512pt" xmlns="http://www.w3.org/2000/svg"><path d="m392.488281 320c0-4.417969-3.582031-8-8-8h-256c-4.417969 0-8 3.582031-8 8v192h120l16-55.339844 16 55.339844h120zm0 0" fill="#b098d4"/><path d="m160.488281 312h-32c-4.417969 0-8 3.582031-8 8v192h32v-192c0-4.417969 3.582031-8 8-8zm0 0" fill="#a58ace"/><path d="m256.488281 456v-128h32v96c0 17.671875-14.328125 32-32 32zm0 0" fill="#bba7da"/><path d="m512.039062 325.359375-112-320c-1.269531-3.628906-4.941406-5.839844-8.738281-5.2695312-3.800781.5703122-6.65625 3.7617182-6.804687 7.6015622l-8 208c-.039063 1.011719.113281 2.019532.449218 2.972656l48 136c1.433594 4.058594 5.984376 6.289063 10.074219 4.925782l72-24c4.171875-1.390625 6.476563-6.074219 5.019531-10.230469zm0 0" fill="#bba7da"/><path d="m500.296875 291.804688-86.425781 31.484374 11.074218 31.375c1.433594 4.058594 5.984376 6.289063 10.074219 4.925782l72-24c4.171875-1.390625 6.476563-6.074219 5.019531-10.230469zm0 0" fill="#b098d4"/><path d="m.9375 325.359375 112-320c1.269531-3.628906 4.941406-5.839844 8.738281-5.2695312 3.800781.5703122 6.660157 3.7617182 6.808594 7.6015622l8 208c.039063 1.011719-.117187 2.019532-.453125 2.972656l-48 136c-1.429688 4.058594-5.984375 6.289063-10.074219 4.925782l-72-24c-4.171875-1.390625-6.472656-6.074219-5.019531-10.230469zm0 0" fill="#bba7da"/><path d="m12.679688 291.804688 86.425781 31.484374-11.074219 31.375c-1.429688 4.058594-5.984375 6.289063-10.074219 4.925782l-72-24c-4.171875-1.390625-6.476562-6.074219-5.019531-10.230469zm0 0" fill="#b098d4"/><path d="m304.488281 0h-96c-4.417969 0-8 3.582031-8 8v112c0 4.417969 3.582031 8 8 8h96c4.417969 0 8-3.582031 8-8v-112c0-4.417969-3.582031-8-8-8zm0 0" fill="#b098d4"/><path d="m392.488281 0h-80.976562c-2.929688 0-5.621094 1.597656-7.023438 4.167969l-48 83.832031-48-83.832031c-1.402343-2.570313-4.09375-4.167969-7.023437-4.167969h-80.976563c-4.417969 0-8 3.582031-8 8v312c0 4.417969 3.582031 8 8 8h272c4.417969 0 8-3.582031 8-8v-312c0-4.417969-3.582031-8-8-8zm0 0" fill="#d2c4e7"/><path d="m144.488281 320v-312c0-4.417969 3.582031-8 8-8h-32c-4.417969 0-8 3.582031-8 8v312c0 4.417969 3.582031 8 8 8h32c-4.417969 0-8-3.582031-8-8zm0 0" fill="#c7b6e0"/><path d="m240.488281 80h32v248h-32zm0 0" fill="#b098d4"/><path d="m304.488281 0h40l-6.746093 47.21875c-.671876 4.695312-5.257813 7.78125-9.859376 6.628906l-23.394531-5.847656v25.222656c0 3.910156-2.828125 7.25-6.683593 7.890625l-41.316407 6.886719zm0 0" fill="#a58ace"/><path d="m208.488281 0h-40l6.746094 47.21875c.671875 4.695312 5.257813 7.78125 9.859375 6.628906l23.394531-5.847656v25.222656c0 3.910156 2.828125 7.25 6.683594 7.890625l41.316406 6.886719zm0 0" fill="#a58ace"/><g fill="#bba7da"><path d="m360.488281 208h-64c-4.417969 0-8 3.582031-8 8v32c0 22.054688 17.945313 40 40 40 22.054688 0 40-17.945312 40-40v-32c0-4.417969-3.582031-8-8-8zm0 0"/><path d="m216.488281 208h-64c-4.417969 0-8 3.582031-8 8v32c0 22.054688 17.945313 40 40 40 22.054688 0 40-17.945312 40-40v-32c0-4.417969-3.582031-8-8-8zm0 0"/></g></svg>