<svg height="512" viewBox="0 0 128 128" width="512" xmlns="http://www.w3.org/2000/svg"><g><path d="m121.5 31.75-10.25 18-7-3.23-3.5-1.62v76.6h-73.5v-76.6l-3.5 1.62-7 3.23-10.25-18 17.69-16.4 16.24-6.5 5.88-2.35h35.38l5.88 2.35 16.24 6.5z" fill="#2586fd"/><path d="m94.75 100.917a1.749 1.749 0 0 1 -1.75-1.75v-8a1.75 1.75 0 0 1 3.5 0v8a1.749 1.749 0 0 1 -1.75 1.75z" fill="#1178ce"/><path d="m87.57 8.85a23.687 23.687 0 0 1 -47.14 0l5.88-2.35h35.38z" fill="#fce277"/><g fill="#1178ce"><path d="m81.692 6.5a17.692 17.692 0 1 1 -35.384 0z"/><path d="m104.25 37.42v9.1l-3.5-1.62v-7.48a1.75 1.75 0 0 1 3.5 0z"/><path d="m27.25 37.42v7.48l-3.5 1.62v-9.1a1.75 1.75 0 0 1 3.5 0z"/></g><path d="m27.25 115.5h73.5v6h-73.5z" fill="#fce277"/></g></svg>