<svg height="512" viewBox="0 0 52 58" width="512" xmlns="http://www.w3.org/2000/svg"><g id="Page-1" fill="none" fill-rule="evenodd"><g id="016---Socks" fill-rule="nonzero"><path id="Shape" d="m43.99 5h6.01c1.1032019.0032948 1.9967052.89679813 2 2v31h-.01c.0042435 4.9037899-2.9780934 9.3159058-7.53 11.14l-20 8c-5.1787706 2.0762945-11.1052341.3012585-14.29-4.28z" fill="#bdc3c7"/><path id="Shape" d="m43.98 33h.006v-31c0-1.1045695-.8954305-2-2-2h-20c-1.1045695 0-2 .8954305-2 2v20.165c-.0000539 1.6357913-.9961139 3.1067125-2.515 3.714l-9.615 3.846c-5.99676739 2.3217966-9.17213815 8.890143-7.267 15.032 1.03546874 3.146203 3.32610183 5.7240268 6.3287432 7.1222163 3.00264136 1.3981895 6.4498626 1.4922159 9.5242568.2597837l20-8c4.5528931-1.8236759 7.5377572-6.2344481 7.538-11.139z" fill="#ecf0f1"/><path id="Shape" d="m43.99 2v8h-24v-8c0-1.1045695.8954305-2 2-2h20c1.1032019.0032948 1.9967052.89679813 2 2z" fill="#bdc3c7"/><path id="Shape" d="m16.98 45c.0077273 2.6902425-.7183177 5.3316633-2.1 7.64-6.09295347 1.5287858-12.33141094-1.9113153-14.29-7.88-1.70693276-5.4308051.58266227-11.3189288 5.51-14.17 6.4404915 1.8306262 10.8829214 7.7143959 10.88 14.41z" fill="#26b99a"/><path id="Shape" d="m43.99 26.06v6.94h-.01c-.0001615 4.9054102-2.9859828 9.3168226-7.54 11.14l-4.45 1.78c-1.3188637-2.0665841-2.0165137-4.4684436-2.01-6.92 0-7.1797017 5.8202983-13 13-13 .3376923-.0052357.6753027.0148204 1.01.06z" fill="#26b99a"/><path id="Shape" d="m52 31.05v6.95h-.01c.0042435 4.9037899-2.9780934 9.3159058-7.53 11.14l-4.46 1.78c-1.3113369-2.0694633-2.005148-4.4700497-2-6.92 0-.21.01-.42.02-.63 3.6690157-2.1371051 5.9355059-6.054026 5.96-10.3 2.0900235-1.3555676 4.5288678-2.074714 7.02-2.07.3340373-.0035479.6679826.0131493 1 .05z" fill="#14a085"/><path id="Shape" d="m25 50c.0077273 2.6902425-.7183177 5.3316633-2.1 7.64-4.8246356 1.2118171-9.8953293-.6921826-12.73-4.78.6023571.0917208 1.2107016.1385165 1.82.14 1.5243774-.0026135 3.0344165-.2944413 4.45-.86l8.51-3.4c.03.42.05.84.05 1.26z" fill="#14a085"/><path id="Shape" d="m52 7v8h-8.01v-10h6.01c1.1032019.0032948 1.9967052.89679813 2 2z" fill="#95a5a5"/><path id="Rectangle-path" d="m47 5h2v10h-2z" fill="#7f8c8d"/><g fill="#95a5a5"><path id="Rectangle-path" d="m26.98 0h2v10h-2z"/><path id="Rectangle-path" d="m30.98 0h2v10h-2z"/><path id="Rectangle-path" d="m34.98 0h2v10h-2z"/><path id="Rectangle-path" d="m38.98 0h2v10h-2z"/><path id="Rectangle-path" d="m22.98 0h2v10h-2z"/></g></g></g></svg>