<svg height="512" viewBox="0 0 512 512" width="512" xmlns="http://www.w3.org/2000/svg"><g id="Flat"><path d="m488 456-192 32-31.11-168-8.89-48-8.89 48-23.68 127.89-2.92 15.74-4.51 24.37-192-32 11.5-97.71 4.5-38.29 10.62-90.25 4.44-37.75 8.47-72 3.2-27.23 5.27-44.77h368l4.27 36.31 4.2 35.69 8.47 72 4.44 37.75 10.62 90.25 10.28 87.41 1.88 15.94z" fill="#a0dde5"/><path d="m488 456-192 32-31.11-168-8.89-48-8.89 48-23.68 127.89-2.92 15.74-4.51 24.37-192-32 11.5-97.71c139.28-32.26 287.43-120.52 356.57-310.29h47.93l4.27 36.31 4.2 35.69 8.47 72 4.44 37.75 10.62 90.25 10.28 87.41 1.88 15.94z" fill="#92d8e0"/><path d="m448.47 120h-384.94l3.2-27.23 5.27-44.77h368l4.27 36.31z" fill="#34507b"/><path d="m223.43 447.89-2.92 15.74-166.01-31.77 3-15.72z" fill="#8fd0d9"/><path d="m484.16 423.35-162.59 32.49-3.14-15.68 163.85-32.75z" fill="#8fd0d9"/><path d="m376 400 72-16-8-32-72 16z" fill="#f2f2f2"/><path d="m472 320h-207.11l-8.89-48-8.89 48h-207.11l9.26-78.73 2.79-23.67 3.01-25.6h401.88l2.89 24.54 2.79 23.77z" fill="#4db7e5"/><path d="m472 320h-207.11l-8.89-48-8.89 48h-100.66c60.16-28.43 117.58-69.84 164.93-128h145.56l2.89 24.54 2.79 23.77z" fill="#4aafdb"/><path d="m456.94 192h-401.88l8.47-72h384.94z" fill="#348fd9"/><path d="m456.94 192h-145.56a471.347 471.347 0 0 0 48.26-72h88.83z" fill="#3086cd"/><path d="m224 96h16v160h-16z" fill="#e0e0de"/><path d="m280 94.416h16v163.169h-16z" fill="#e0e0de" transform="matrix(.981 -.196 .196 .981 -28.924 59.899)"/><path d="m121.05 120a189.991 189.991 0 0 1 -27.15 72 190.555 190.555 0 0 1 -37.01 42.73l-7.63 6.54 2.79-23.67a173.956 173.956 0 0 0 22.54-25.6 173.808 173.808 0 0 0 30.24-72z" fill="#3086cd"/><path d="m462.62 240.31-6.51-5.58a190.017 190.017 0 0 1 -64.16-114.73h16.22a174.044 174.044 0 0 0 51.66 96.54z" fill="#3086cd"/><path d="m448.47 120h-88.83a523.553 523.553 0 0 0 32.43-72h47.93l4.27 36.31z" fill="#314c73"/><rect fill="#353f52" height="48" rx="24" width="368" x="72" y="24"/></g></svg>