<svg id="Capa_1" enable-background="new 0 0 504.5 504.5" height="512" viewBox="0 0 504.5 504.5" width="512" xmlns="http://www.w3.org/2000/svg"><g><path d="m192.25 177.55c-45.491 0-82.5-37.01-82.5-82.5 0-4.143-3.358-7.5-7.5-7.5s-7.5 3.357-7.5 7.5c0 53.762 43.738 97.5 97.5 97.5h60v-15z" fill="#c27749"/><path d="m402.25 87.55c-4.143 0-7.5 3.357-7.5 7.5 0 45.49-37.01 82.5-82.5 82.5h-60v15h60c53.762 0 97.5-43.738 97.5-97.5 0-4.143-3.357-7.5-7.5-7.5z" fill="#a45e43"/><path d="m214.75 285v196.592l-24.87 8.29c-3.93 1.31-6.053 5.557-4.744 9.487 1.31 3.93 5.559 6.054 9.487 4.744l29.998-10c3.063-1.021 5.128-3.887 5.128-7.115v-201.998z" fill="#c27749"/><path d="m289.75 285v196.592l24.87 8.29c3.93 1.31 6.053 5.557 4.744 9.487-1.31 3.93-5.559 6.054-9.487 4.744l-29.998-10c-3.063-1.021-5.128-3.887-5.128-7.115v-201.998z" fill="#a45e43"/><path d="m319.75 67.5c0-5.023-2.478-9.458-6.268-12.18 2.46-3.966 3.052-9.011 1.13-13.651s-5.908-7.79-10.452-8.854c.755-4.605-.629-9.493-4.18-13.044-3.552-3.552-8.439-4.936-13.044-4.18-1.065-4.543-4.214-8.53-8.854-10.452s-9.686-1.33-13.651 1.13c-2.723-3.791-7.158-6.269-12.181-6.269s-9.458 2.478-12.18 6.268c-3.966-2.46-9.011-3.052-13.651-1.13s-7.79 5.908-8.854 10.452c-4.605-.755-9.493.629-13.044 4.18-3.552 3.552-4.936 8.439-4.18 13.044-4.543 1.065-8.53 4.214-10.452 8.854s-1.33 9.686 1.13 13.651c-3.79 2.722-6.268 7.157-6.268 12.18s2.478 9.458 6.268 12.18c-2.46 3.966-3.052 9.011-1.13 13.651s5.908 7.79 10.452 8.854c-.755 4.605.629 9.493 4.18 13.044 3.693 3.693 8.833 5.058 13.596 4.094h68.268c4.762.964 9.902-.401 13.596-4.094 3.552-3.552 4.936-8.439 4.18-13.044 4.543-1.065 8.53-4.214 10.452-8.854s1.33-9.686-1.13-13.651c3.789-2.721 6.267-7.156 6.267-12.179z" fill="#85453d"/><path d="m252.25 45v90c24.853 0 45-20.147 45-45s-20.147-45-45-45z" fill="#a45e43"/><path d="m267.25 90c0-24.853-6.716-45-15-45-24.853 0-45 20.147-45 45s20.147 45 45 45c8.284 0 15-20.147 15-45z" fill="#c27749"/><path d="m252.25 240v90c24.853 0 45-20.147 45-45z" fill="#fff0d3"/><path d="m267.25 285v-45l-60 45c0 24.853 20.147 45 45 45 8.284 0 15-20.147 15-45z" fill="#fff"/><path d="m292.25 165h-30l-30 75 35 45h30v-45c8.964-4.993 15-14.315 15-25v-30c0-11.046-8.955-20-20-20z" fill="#a45e43"/><path d="m262.25 165h-50c-11.046 0-20 8.954-20 20v30c0 10.685 6.036 20.007 15 25v45h60v-45c8.964-4.993 15-14.315 15-25v-30c0-11.046-8.955-20-20-20z" fill="#c27749"/><circle cx="282.25" cy="195.417" fill="#85453d" r="7.5"/><circle cx="222.25" cy="195.417" fill="#a45e43" r="7.5"/></g></svg>