<svg id="Flat" height="512" viewBox="0 0 512 512" width="512" xmlns="http://www.w3.org/2000/svg"><path d="m360 328h22.9a16.02 16.02 0 0 1 15.15 21.165 192.094 192.094 0 0 1 -180.957 130.835c-105.928.588-192.893-85.706-193.093-191.636-.2-106.207 85.839-192.364 192-192.364a192.091 192.091 0 0 1 182.123 131.044 15.975 15.975 0 0 1 -15.216 20.956h-22.907a32 32 0 0 0 -32 32v16a32 32 0 0 0 32 32z" fill="#fae8d8"/><circle cx="96" cy="288" fill="#b01641" r="24"/><circle cx="128" cy="200" fill="#b75382" r="24"/><circle cx="304" cy="376" fill="#fcb442" r="24"/><circle cx="216" cy="168" fill="#2b70a8" r="24"/><circle cx="216" cy="408" fill="#298057" r="24"/><circle cx="128" cy="376" fill="#8e9c4c" r="24"/><path d="m381.055 2.9h32a0 0 0 0 1 0 0v224.1a16 16 0 0 1 -16 16 16 16 0 0 1 -16-16v-224.1a0 0 0 0 1 0 0z" fill="#2b70a8" transform="matrix(-.707 -.707 .707 -.707 590.879 490.644)"/><path d="m285.398 171.373h32v94.461h-32z" fill="#fcb442" transform="matrix(-.707 -.707 .707 -.707 359.941 586.3)"/><path d="m216 304 54.443-12.564a32 32 0 0 0 23.849-23.419l6.561-26.242-22.628-22.628-26.242 6.561a32 32 0 0 0 -23.419 23.849z" fill="#976048"/></svg>