<svg height="512" viewBox="0 0 59 59" width="512" xmlns="http://www.w3.org/2000/svg"><g id="Page-1" fill="none" fill-rule="evenodd"><g id="026---Breads" fill-rule="nonzero" transform="translate(0 -1)"><path id="Shape" d="m28 34c.0659755.9921045.5629246 1.9056138 1.36 2.5.7526357.6507162 1.1345383 1.6316818 1.02 2.62l-.14 1.21-.01.01c-12.24 13.45-24.75 21.15-28.88 17.44-2.76-2.47-1.13-9.46 3.61-18.1l.01.01c1.66888548 1.7314217 3.5704281 3.2223657 5.65 4.43.6761065.387244 1.4804328.483491 2.2288186.2667042.7483858-.2167869 1.3767357-.7280409 1.7411814-1.4167042.7927631-1.4420464.2968458-3.2530299-1.12-4.09-2.0227011-1.1775307-3.82604732-2.6966723-5.33-4.49 1.11-1.71 2.31-3.46 3.61-5.22 1.1689077 1.5500678 2.4850386 2.9834114 3.93 4.28.7903942.7073126 1.6182564 1.3716052 2.48 1.99.6351328.450307 1.4257855.6236652 2.1910622.4804115.7652768-.1432538 1.4396897-.5908607 1.8689378-1.2404115.9142744-1.3663088.5877716-3.2106084-.74-4.18-2.3440269-1.683445-4.3605139-3.7812694-5.95-6.19.45-.56.92-1.13 1.4-1.69.62-.73 1.24-1.45 1.87-2.15 1.1694451 1.8177692 2.5750597 3.4722247 4.18 4.92.7081248.637203 1.456322 1.2284124 2.24 1.77.6433669.4451939 1.4406413.608331 2.2071677.4516273.7665263-.1567036 1.4358075-.6196538 1.8528323-1.2816273.8943036-1.3785376.5361949-3.2177133-.81-4.16-2.285288-1.6013278-4.1651759-3.7140616-5.49-6.17 1.08-1.11 2.16-2.16 3.24-3.17.8768714 1.3471511 1.9257193 2.5741686 3.12 3.65.8166719.7345745 1.7005563 1.3907916 2.64 1.96.6663472.4025082 1.4676545.5169534 2.2200368.3170724.7523822-.199881 1.3912385-.696926 1.7699632-1.3770724.8222998-1.4266048.3669021-3.2481957-1.03-4.12-1.7480012-1.0779234-3.2013838-2.5725367-4.23-4.35 8.1-6.6 15.06-9.57 17.94-6.98 3.59 3.22-.23 14.05-8.67 26.19-6.84.56-11.98 2.98-11.98 5.88z" fill="#f29c1f"/><path id="Shape" d="m35.97 17.38c-.3787247.6801464-1.017581 1.1771914-1.7699632 1.3770724-.7523823.199881-1.5536896.0854358-2.2200368-.3170724-.9394437-.5692084-1.8233281-1.2254255-2.64-1.96-1.1942807-1.0758314-2.2431286-2.3028489-3.12-3.65 1.52-1.42 3.03-2.73 4.49-3.92 1.0286162 1.7774633 2.4819988 3.2720766 4.23 4.35 1.3969021.8718043 1.8522998 2.6933952 1.03 4.12z" fill="#e57e25"/><path id="Shape" d="m29.28 26.33c-.4170248.6619735-1.086306 1.1249237-1.8528323 1.2816273-.7665264.1567037-1.5638008-.0064334-2.2071677-.4516273-.783678-.5415876-1.5318752-1.132797-2.24-1.77-1.6049403-1.4477753-3.0105549-3.1022308-4.18-4.92 1.38-1.57 2.78-3.06 4.18-4.47 1.3248241 2.4559384 3.204712 4.5686722 5.49 6.17 1.3461949.9422867 1.7043036 2.7814624.81 4.16z" fill="#e57e25"/><path id="Shape" d="m22.22 34.68c-.4292481.6495508-1.103661 1.0971577-1.8689378 1.2404115-.7652767.1432537-1.5559294-.0301045-2.1910622-.4804115-.8617436-.6183948-1.6896058-1.2826874-2.48-1.99-1.4449614-1.2965886-2.7610923-2.7299322-3.93-4.28 1.18-1.61 2.44-3.23 3.78-4.86 1.5894861 2.4087306 3.6059731 4.506555 5.95 6.19 1.3277716.9693916 1.6542744 2.8136912.74 4.18z" fill="#e57e25"/><path id="Shape" d="m14.59 42.97c-.3644457.6886633-.9927956 1.1999173-1.7411814 1.4167042-.7483858.2167868-1.5527121.1205398-2.2288186-.2667042-2.0795719-1.2076343-3.98111452-2.6985783-5.65-4.43l-.01-.01c.94-1.7 2-3.48 3.18-5.29 1.50395268 1.7933277 3.3072989 3.3124693 5.33 4.49 1.4168458.8369701 1.9127631 2.6479536 1.12 4.09z" fill="#e57e25"/><path id="Shape" d="m38.777 23.292c-.3614935-.0007029-.6944653-.1964487-.8708842-.5119711-.1764189-.3155225-.1688165-.7016945.0198842-1.0100289 1.6-2.623 2.469-4.3 2.476-4.32.2515657-.4920857.8544143-.6870657 1.3465-.4355s.6870657.8544143.4355 1.3465c-.037.07-.9 1.758-2.553 4.452-.1816789.2976455-.505288.4791546-.854.479z" fill="#fff"/><path id="Shape" d="m57.6 55.64c.1030392.8524543-.1641341 1.7082007-.7338838 2.3506031-.5697497.6424023-1.3874572 1.0098773-2.2461162 1.0093969h-23.24c-.858659.0004804-1.6763665-.3669946-2.2461162-1.0093969-.5697497-.6424024-.836923-1.4981488-.7338838-2.3506031l1.83-15.3.01-.01.14-1.21c.1145383-.9883182-.2673643-1.9692838-1.02-2.62-.7970754-.5943862-1.2940245-1.5078955-1.36-2.5 0-2.9 5.14-5.32 11.98-5.88.97-.08 1.98-.12 3.02-.12 8.28 0 15 2.69 15 6-.0659755.9921045-.5629246 1.9056138-1.36 2.5-.7526357.6507162-1.1345383 1.6316818-1.02 2.62z" fill="#f9eab0"/><path id="Shape" d="m54.62 60h-23.24c-1.1442307.0004414-2.2338693-.4891617-2.9933546-1.3449925-.7594853-.8558307-1.116095-1.9959416-.9796454-3.1320075l1.83-15.3c.0050031-.0421866.0130236-.0839603.024-.125l.126-1.091c.0755242-.6632232-.1816356-1.3209086-.687-1.757-1.0158686-.7815986-1.6373787-1.9697797-1.7-3.25 0-3.481 5.184-6.245 12.9-6.876.991-.082 2.035-.124 3.1-.124 9.121 0 16 3.009 16 7-.0622929 1.2811416-.68378 2.4703755-1.7 3.253-.5032772.4332713-.7603434 1.0869752-.687 1.747l1.98 16.521c.1370688 1.1363874-.2192597 2.2770509-.9788161 3.1333442s-1.84956 1.3461662-2.9941839 1.3456558zm-23.411-19.423-1.815 15.182c-.0689887.5683481.1088995 1.1390117.4886197 1.5674876.3797203.4284758.9248604.6736765 1.4973803.6735124h23.24c.5725199.0001641 1.11766-.2450366 1.4973803-.6735124.3797202-.4284759.5576084-.9991395.4886197-1.5674876l-1.979-16.52c-.1521117-1.3147734.3536775-2.620024 1.352-3.489.5655224-.418991.9345492-1.051505 1.021-1.75 0-2.36-5.987-5-14-5-1.011 0-2 .039-2.938.117-6.924.567-11.062 2.928-11.062 4.883.0858326.6973951.45422 1.328968 1.019 1.747.9995936.8703368 1.5060931 2.1773599 1.354 3.494l-.14 1.2c-.0036903.0459891-.0117261.0915256-.024.136z" fill="#e4c05c"/><g fill="#cb8252"><circle id="Oval" cx="39" cy="34" r="1"/><circle id="Oval" cx="35" cy="38" r="1"/><circle id="Oval" cx="39" cy="42" r="1"/><circle id="Oval" cx="51" cy="36" r="1"/><circle id="Oval" cx="45" cy="33" r="1"/><circle id="Oval" cx="48" cy="42" r="1"/><circle id="Oval" cx="43" cy="38" r="1"/></g></g></g></svg>