<svg id="Capa_1" enable-background="new 0 0 512 512" height="512" viewBox="0 0 512 512" width="512" xmlns="http://www.w3.org/2000/svg"><g><g><path d="m342.174 398.301c-2.443 0-4.921-.598-7.214-1.859-7.259-3.992-9.908-13.112-5.916-20.372l127.439-231.754c3.99-7.259 13.108-9.91 20.371-5.917 7.259 3.992 9.908 13.112 5.916 20.372l-127.439 231.755c-2.73 4.966-7.863 7.775-13.157 7.775z" fill="#aeb5c7"/><g><g><path d="m318.838 398.298c-1.781 0-3.563-.317-5.257-.951l-144.18-53.954c-5.86-2.192-9.743-7.792-9.743-14.048 0-34.927 27.725-64.435 60.542-64.435 1.063 0 2.124.028 3.181.084 5.352-19.092 22.629-33.108 43.06-33.108 4.179 0 8.27.588 12.181 1.71 8.391-28.748 34.49-49.764 65.303-49.764 36.568 0 66.5 29.601 68.067 66.596 38.002 2.185 66.026 43.078 66.026 79.746 0 6.284-3.917 11.902-9.814 14.075l-144.18 53.124c-1.673.617-3.43.925-5.186.925zm144.18-68.124h.01z" fill="#fddb8d"/><path d="m411.991 250.428c-1.567-36.995-31.499-66.596-68.067-66.596-9.757 0-19.038 2.113-27.437 5.906v208.364c.779.124 1.565.196 2.351.196 1.756 0 3.513-.308 5.185-.925l144.18-53.124c5.897-2.173 9.814-7.791 9.814-14.075.001-36.668-28.024-77.561-66.026-79.746z" fill="#fbac5b"/></g><g><g><path d="m316.487 512c-100.659 0-182.552-81.893-182.552-182.552 0-8.284 6.716-15 15-15h335.104c8.284 0 15 6.716 15 15 0 100.659-81.892 182.552-182.552 182.552z" fill="#dbe2eb"/><path d="m484.039 314.448h-167.552v197.552h.001c100.659 0 182.552-81.893 182.552-182.552-.001-8.284-6.717-15-15.001-15z" fill="#ced3df"/></g><g><path d="m497 344.448h-361.026c-8.284 0-15-6.716-15-15s6.716-15 15-15h361.026c8.284 0 15 6.716 15 15s-6.716 15-15 15z" fill="#00429b"/><path d="m497 314.448h-180.513v30h180.513c8.284 0 15-6.716 15-15s-6.716-15-15-15z" fill="#00337a"/></g></g></g></g><g><path d="m185.054 126.362c-3.839 0-7.678-1.464-10.606-4.394-5.858-5.857-5.858-15.355 0-21.213l53.927-53.927c5.857-5.858 15.355-5.858 21.213 0 5.858 5.857 5.858 15.355 0 21.213l-53.927 53.927c-2.93 2.93-6.768 4.394-10.607 4.394z" fill="#f9a54c"/><path d="m57.549 152.154 12.441 79.653 66.815 11.364 108.256-102.608-70.526-18.191-14.877-81.713z" fill="#fd8f32"/><g><path d="m285.957 101.234c-6.004-5.705-15.5-5.463-21.206.542l-16.95 17.84-62.747-8.255-7.38-68.598 16.562-17.431c5.706-6.006 5.464-15.5-.542-21.207-6.005-5.705-15.5-5.463-21.206.543l-102.411 107.786c-19.301 20.314-28.126 49.276-23.03 75.583l7.362 38.015-50.283 52.925c-5.706 6.006-5.464 15.5.542 21.207 2.902 2.757 6.619 4.125 10.33 4.125 3.967 0 7.928-1.565 10.876-4.668l49.81-52.426 35.098 7.53c4.844 1.04 9.771 1.546 14.717 1.546 21.22 0 42.701-9.342 58.59-26.065l102.41-107.786c5.706-6.006 5.464-15.5-.542-21.206zm-86.691 69.464-45.229-5.95 22.979-24.185 45.23 5.95zm-43.521-51.301-21.429 22.555-5.176-48.106 21.43-22.555zm-63.92 13.721 10.21-10.746 5.176 48.106-27.419 28.858-3.292-17.003c-3.284-16.951 2.589-35.809 15.325-49.215zm25.25 92.295-17.175-3.685 28.582-30.083 45.229 5.95-11.37 11.967c-12.446 13.098-29.794 19.171-45.266 15.851z" fill="#fbd85d"/><path d="m285.957 101.234c-6.004-5.705-15.5-5.463-21.206.542l-16.95 17.84-62.747-8.255-180.386 188.822c2.902 2.757 6.619 4.125 10.33 4.125 3.967 0 7.928-1.565 10.876-4.668l49.81-52.426 35.098 7.53c4.844 1.04 9.771 1.546 14.717 1.546 21.22 0 42.701-9.342 58.59-26.065l102.41-107.786c5.706-6.005 5.464-15.499-.542-21.205zm-123.616 108.328c-12.445 13.098-29.794 19.171-45.266 15.85l-17.175-3.684 28.582-30.083 45.229 5.95zm36.925-38.864-45.229-5.95 22.979-24.185 45.229 5.95z" fill="#fdba3e"/></g></g></g></svg>