<?xml version="1.0" encoding="iso-8859-1"?>
<!-- Generator: Adobe Illustrator 19.0.0, SVG Export Plug-In . SVG Version: 6.00 Build 0)  -->
<svg version="1.1" id="Capa_1" xmlns="http://www.w3.org/2000/svg" xmlns:xlink="http://www.w3.org/1999/xlink" x="0px" y="0px"
	 viewBox="0 0 512 512" style="enable-background:new 0 0 512 512;" xml:space="preserve">
<path style="fill:#FEDB41;" d="M497,373.296h15v-110.64l-83.359-45.46L72.058,94.207L0,112.085v227.241l152.637,47.386L211,373.296
	l40.214,44.222L512,498.702v-95.405h-15c-8.276,0-15-6.724-15-15S488.724,373.296,497,373.296z"/>
<g>
	<path style="fill:#FCBF29;" d="M387.821,121.885l-10.84,6.812c-4.79,3.003-10.313,4.6-15.981,4.6c-16.538,0-30-13.462-30-30
		c0-7.104,2.402-13.74,6.943-19.189l8.218-9.844l-53.35-60.967H233.28c-10.029,0-19.969,0.551-29.835,1.452L151,73.296
		l-59.681-26.85C59.943,61.883,29.843,82.237,4.395,107.691L0,112.085l512,150.571L387.821,121.885z"/>
	<path style="fill:#FCBF29;" d="M271,361.075c0-33.091-26.909-60-60-60s-60,26.909-60,60c0,4.627,0.641,9.086,1.637,13.416
		l98.577,30.806C263.282,394.316,271,378.644,271,361.075z"/>
	<path style="fill:#FCBF29;" d="M106,301.075c-24.814,0-45-7.964-45-32.778s20.186-45,45-45s45,20.186,45,45
		S130.814,301.075,106,301.075z"/>
	<path style="fill:#FCBF29;" d="M376,361.075c-24.814,0-45-20.186-45-45s20.186-45,45-45s45,20.186,45,45
		S400.814,361.075,376,361.075z"/>
	<path style="fill:#FCBF29;" d="M181,193.296c0,33.091,26.909,60,60,60c30.643,0,55.695-23.161,59.277-52.853l-44.274-43.071
		l-68.716,9.713C183.388,175.037,181,183.855,181,193.296z"/>
</g>
<g>
	<path style="fill:#FEA832;" d="M151,103.296c33.091,0,60-26.909,60-60c0-10.388-2.891-20.019-7.555-28.548
		c-39.412,3.594-77.203,14.515-112.126,31.697C92.994,78.044,118.988,103.296,151,103.296z"/>
	<path style="fill:#FEA832;" d="M241,133.296c-23.65,0-43.945,13.865-53.714,33.788l112.991,33.358
		c0.286-2.371,0.723-4.698,0.723-7.147C301,160.206,274.091,133.296,241,133.296z"/>
</g>
<g>
</g>
<g>
</g>
<g>
</g>
<g>
</g>
<g>
</g>
<g>
</g>
<g>
</g>
<g>
</g>
<g>
</g>
<g>
</g>
<g>
</g>
<g>
</g>
<g>
</g>
<g>
</g>
<g>
</g>
</svg>
