<?xml version="1.0" encoding="iso-8859-1"?>
<!-- Generator: Adobe Illustrator 19.0.0, SVG Export Plug-In . SVG Version: 6.00 Build 0)  -->
<svg version="1.1" id="Capa_1" xmlns="http://www.w3.org/2000/svg" xmlns:xlink="http://www.w3.org/1999/xlink" x="0px" y="0px"
	 viewBox="0 0 512 512" style="enable-background:new 0 0 512 512;" xml:space="preserve">
<path style="fill:#303C42;" d="M504.708,416.552C467.083,404,448,382.292,448,352c0-3.358-0.674-80.087-45.466-138.941
	c11.345-14.372,20.771-23.947,21.008-24.184c2-2,3.125-4.719,3.125-7.542c0-0.694-0.046-2.892-0.332-5.918l26.082-26.082h16.917
	c23.521,0,42.667-19.135,42.667-42.667c0-17.01-9.938-31.99-25.208-38.781C480,52.604,465.021,42.667,448,42.667
	c-23.521,0-42.667,19.135-42.667,42.667v16.917l-26.079,26.079c-3.026-0.284-5.224-0.329-5.921-0.329
	c-2.833,0-5.542,1.125-7.542,3.125c-0.293,0.293-14.768,14.586-35.055,29.243c-20.016-7.293-40.997-11.035-64.07-11.035
	C124.604,149.333,0,249.021,0,362.667c0,65.792,53.125,106.667,138.667,106.667h298.667c48.083,0,74.667-25.229,74.667-42.667
	C512,422.073,509.063,418,504.708,416.552z"/>
<path style="fill:#FAFAFA;" d="M423.542,114.208c2-2,3.125-4.708,3.125-7.542V85.333C426.667,73.573,436.229,64,448,64
	c9.396,0,17.542,6.125,20.292,15.24c1.021,3.427,3.708,6.115,7.146,7.146c9.104,2.74,15.229,10.885,15.229,20.281
	c0,11.76-9.563,21.333-21.333,21.333H448c-2.833,0-5.542,1.125-7.542,3.125l-20.621,20.621c-1.818-3.573-4.033-7.022-6.962-9.954
	s-6.376-5.148-9.949-6.967L423.542,114.208z"/>
<path style="fill:#F9A825;" d="M377.375,149.583c6.083,0.625,15.667,2.542,20.417,7.292s6.667,14.344,7.292,20.417
	c-13.75,14.583-63.75,71.063-63.75,121.375C341.333,345.719,303.063,384,256,384s-85.333-38.281-85.333-85.333
	s38.271-85.333,85.333-85.333C306.313,213.333,362.792,163.333,377.375,149.583z"/>
<path style="opacity:0.1;enable-background:new    ;" d="M397.792,156.875c-1.928-1.928-4.725-3.292-7.689-4.389
	c-20.569,24.493-53.173,69.807-53.173,111.174c0,48.71-39.62,88.34-88.34,88.34c-33.421,0-62.207-18.867-77.212-46.303
	C175.021,349.415,211.345,384,256,384c47.063,0,85.333-38.281,85.333-85.333c0-50.313,50-106.792,63.75-121.375
	C404.458,171.219,402.542,161.625,397.792,156.875z"/>
<path style="fill:#F9A825;" d="M437.333,448H138.667c-35.271,0-117.333-8.313-117.333-85.333c0-102.281,114.646-192,245.333-192
	c14.359,0,27.727,1.711,40.543,4.835C290.616,184.848,272.591,192,256,192c-58.813,0-106.667,47.854-106.667,106.667
	S197.188,405.333,256,405.333s106.667-47.854,106.667-106.667c0-22.258,12.839-47.158,26.716-67.647
	c36.799,52.637,37.284,120.251,37.284,120.98c0,36.469,20.583,64.094,59.708,80.448C479.396,439.083,463.75,448,437.333,448z"/>
<path style="opacity:0.2;fill:#FFFFFF;enable-background:new    ;" d="M36.688,386.667c0-81.661,73.158-155.164,169.135-181.543
	C220.85,197.023,237.767,192,256,192c16.591,0,34.616-7.152,51.21-16.499c-12.816-3.124-26.184-4.835-40.543-4.835
	c-130.688,0-245.333,89.719-245.333,192c0,24.522,8.357,42.031,20.836,54.573C38.788,408.456,36.688,398.452,36.688,386.667z"/>
<linearGradient id="SVGID_1_" gradientUnits="userSpaceOnUse" x1="-34.0371" y1="633.0024" x2="-25.5744" y2="624.5427" gradientTransform="matrix(21.3333 0 0 -21.3333 996.3334 13791.667)">
	<stop  offset="0" style="stop-color:#000000;stop-opacity:0.1"/>
	<stop  offset="1" style="stop-color:#000000;stop-opacity:0"/>
</linearGradient>
<path style="fill:url(#SVGID_1_);" d="M486.375,432.448c-39.125-16.354-59.708-43.979-59.708-80.448
	c0-0.729-0.484-68.344-37.284-120.98c-13.878,20.49-26.716,45.389-26.716,67.647c0,58.813-47.854,106.667-106.667,106.667
	c-28.594,0-54.469-11.454-73.642-29.837L254.862,448h182.471C463.75,448,479.396,439.083,486.375,432.448z"/>
<linearGradient id="SVGID_2_" gradientUnits="userSpaceOnUse" x1="-43.1282" y1="638.8264" x2="-21.5428" y2="628.7611" gradientTransform="matrix(21.3333 0 0 -21.3333 996.3334 13791.667)">
	<stop  offset="0" style="stop-color:#FFFFFF;stop-opacity:0.2"/>
	<stop  offset="1" style="stop-color:#FFFFFF;stop-opacity:0"/>
</linearGradient>
<path style="fill:url(#SVGID_2_);" d="M504.708,416.552C467.083,404,448,382.292,448,352c0-3.358-0.674-80.087-45.466-138.941
	c11.345-14.372,20.771-23.947,21.008-24.184c2-2,3.125-4.719,3.125-7.542c0-0.694-0.046-2.892-0.332-5.918l26.082-26.082h16.917
	c23.521,0,42.667-19.135,42.667-42.667c0-17.01-9.938-31.99-25.208-38.781C480,52.604,465.021,42.667,448,42.667
	c-23.521,0-42.667,19.135-42.667,42.667v16.917l-26.079,26.079c-3.026-0.284-5.224-0.329-5.921-0.329
	c-2.833,0-5.542,1.125-7.542,3.125c-0.293,0.293-14.768,14.586-35.055,29.243c-20.016-7.293-40.997-11.035-64.07-11.035
	C124.604,149.333,0,249.021,0,362.667c0,65.792,53.125,106.667,138.667,106.667h298.667c48.083,0,74.667-25.229,74.667-42.667
	C512,422.073,509.063,418,504.708,416.552z"/>
<g>
</g>
<g>
</g>
<g>
</g>
<g>
</g>
<g>
</g>
<g>
</g>
<g>
</g>
<g>
</g>
<g>
</g>
<g>
</g>
<g>
</g>
<g>
</g>
<g>
</g>
<g>
</g>
<g>
</g>
</svg>
