<?xml version="1.0" encoding="iso-8859-1"?>
<!-- Generator: Adobe Illustrator 19.0.0, SVG Export Plug-In . SVG Version: 6.00 Build 0)  -->
<svg version="1.1" id="Capa_1" xmlns="http://www.w3.org/2000/svg" xmlns:xlink="http://www.w3.org/1999/xlink" x="0px" y="0px"
	 viewBox="0 0 512 512" style="enable-background:new 0 0 512 512;" xml:space="preserve">
<path style="fill:#68C9E0;" d="M312.782,60.336L256,40.752l-56.781,19.584c-9.554,0-17.299,7.745-17.299,17.299l0,0
	c0,9.554,7.745,17.299,17.299,17.299L256,108.744l56.782-13.811c9.554,0,17.299-7.745,17.299-17.299l0,0
	C330.081,68.081,322.336,60.336,312.782,60.336z"/>
<g>
	<path style="fill:#96D7E8;" d="M315.89,512c35.516,0,64.306-28.79,64.306-64.306V320.782c0-140.227-67.415-145.007-67.415-225.848
		H199.219c0,80.84-67.415,85.621-67.415,225.848v126.912c0,35.516,28.79,64.306,64.306,64.306H315.89z"/>
	<path style="fill:#96D7E8;" d="M180.223,447.694V320.781c0-140.227,67.415-145.007,67.415-225.848H199.22
		c0,80.84-67.415,85.62-67.415,225.848v126.912c0,35.516,28.791,64.306,64.306,64.306h48.419
		C209.014,512,180.223,483.208,180.223,447.694z"/>
</g>
<path style="fill:#68C9E0;" d="M180.223,447.694V320.781c0-140.227,67.415-145.007,67.415-225.848H199.22
	c0,80.84-67.415,85.62-67.415,225.848v126.912c0,35.516,28.791,64.306,64.306,64.306h48.419
	C209.014,512,180.223,483.208,180.223,447.694z"/>
<path style="fill:#E3E6E8;" d="M312.357,190.62H199.644c-17.683,29.182-35.969,59.357-35.969,130.161v126.913
	c0,17.884,14.55,32.434,32.435,32.434H315.89c17.885,0,32.434-14.55,32.434-32.434V320.781
	C348.324,249.977,330.04,219.801,312.357,190.62z"/>
<path style="fill:#CCCED0;" d="M180.223,447.694V320.781c0-66.101,14.98-102.1,30.817-130.161h-11.395
	c-17.683,29.182-35.969,59.357-35.969,130.161v126.912c0,15.257,10.592,28.08,24.808,31.52
	C183.233,469.898,180.223,459.15,180.223,447.694z"/>
<g>
	<path style="fill:#3B484A;" d="M202.881,332.943c-4.267,0-7.726-3.459-7.726-7.726v-9.614c0-4.267,3.459-7.726,7.726-7.726
		s7.726,3.459,7.726,7.726v9.614C210.608,329.484,207.148,332.943,202.881,332.943z"/>
	<path style="fill:#3B484A;" d="M309.12,332.943c-4.267,0-7.726-3.459-7.726-7.726v-9.614c0-4.267,3.459-7.726,7.726-7.726
		s7.726,3.459,7.726,7.726v9.614C316.846,329.484,313.387,332.943,309.12,332.943z"/>
	<path style="fill:#3B484A;" d="M256,340.047c-8.507,0-16.499-3.56-21.925-9.768c-2.809-3.213-2.481-8.094,0.731-10.902
		c3.213-2.808,8.093-2.481,10.902,0.732c2.492,2.851,6.244,4.485,10.292,4.485s7.799-1.635,10.292-4.485
		c2.808-3.213,7.689-3.54,10.902-0.731c3.213,2.808,3.541,7.689,0.731,10.902C272.499,336.487,264.508,340.047,256,340.047z"/>
</g>
<path style="fill:#FAE7CA;" d="M308.389,0H203.612c-22.055,0-39.935,17.88-39.935,39.935v2.158c0,10.075,8.167,18.243,18.243,18.243
	h148.161c10.075,0,18.243-8.167,18.243-18.243v-2.158C348.323,17.88,330.444,0,308.389,0z"/>
<path style="fill:#E2D1B7;" d="M215.187,42.092v-2.158C215.187,17.88,233.066,0,255.121,0h-51.509
	c-22.055,0-39.935,17.879-39.935,39.935v2.158c0,10.075,8.167,18.242,18.243,18.242h51.509
	C223.354,60.336,215.187,52.168,215.187,42.092z"/>
<g>
</g>
<g>
</g>
<g>
</g>
<g>
</g>
<g>
</g>
<g>
</g>
<g>
</g>
<g>
</g>
<g>
</g>
<g>
</g>
<g>
</g>
<g>
</g>
<g>
</g>
<g>
</g>
<g>
</g>
</svg>
