<svg id="Flat" height="512" viewBox="0 0 512 512" width="512" xmlns="http://www.w3.org/2000/svg"><path d="m176.57 318.21a78.677 78.677 0 0 1 -.57 9.79q-5.46 1.1-10.58 1.79c-88.3 12.14-105.34-58.99-108.63-86.91a102.664 102.664 0 0 1 -.79-10.88q5.925-.7 11.48-1.07c100.29-6.91 109.28 61.3 109.09 87.28z" fill="#ced98f"/><path d="m160.569 152.569a80 80 0 0 1 -113.138-113.138z" fill="#e74444"/><path d="m137.94 129.94a48 48 0 0 1 -67.88-67.88z" fill="#c43333"/><path d="m182.25 333a8.014 8.014 0 0 1 -11.25 1.25l-5.58-4.46-108.63-86.91a102.664 102.664 0 0 1 -.79-10.88q5.925-.7 11.48-1.07l109.09 87.28 4.43 3.54a8.007 8.007 0 0 1 1.25 11.25z" fill="#b0bb74"/><path d="m424 256c-.336 0-.669.015-1 .025a32.01 32.01 0 0 0 -62 0c-.333-.01-.666-.025-1-.025a32 32 0 1 0 31 39.975c.333.01.666.025 1 .025s.669-.015 1-.025a32 32 0 1 0 31-39.975z" fill="#b0bb74"/><path d="m184 424h144v48h-144z" fill="#d88080"/><path d="m398.627 166.627a32 32 0 0 1 45.255 45.255l22.628 22.628a64 64 0 0 0 -90.51-90.51z" fill="#fc8d36"/><path d="m111.24 103.24-4.52 40.68a47.813 47.813 0 0 1 -15.9-1.76l4.12-37.1-37.1 4.12a47.813 47.813 0 0 1 -1.76-15.9l40.68-4.52z" fill="#e74444"/><path d="m305.136 122.4a32 32 0 1 0 -43.536-43.536 32 32 0 1 0 -15.3 58.84 32 32 0 1 0 58.84-15.3z" fill="#b0bb74"/><path d="m216 176a8 8 0 0 1 -5.657-13.657l56.167-56.167a8 8 0 1 1 11.314 11.314l-56.167 56.167a7.974 7.974 0 0 1 -5.657 2.343z" fill="#818a55"/><path d="m237.265 276a24 24 0 0 0 -13.265-44v-8a24 24 0 0 0 -48 0v8a24 24 0 0 0 -13.265 44 24 24 0 0 0 13.265 44v24h48v-24a24 24 0 0 0 13.265-44z" fill="#8e9c4c"/><path d="m296 208a64 64 0 1 0 64 64 64 64 0 0 0 -64-64zm0 96a32 32 0 1 1 32-32 32 32 0 0 1 -32 32z" fill="#fde575"/><circle cx="296" cy="272" fill="#e4bc43" r="32"/><path d="m48 296h416a0 0 0 0 1 0 0v32a112 112 0 0 1 -112 112h-192a112 112 0 0 1 -112-112v-32a0 0 0 0 1 0 0z" fill="#fc9495"/></svg>