<svg id="Capa_1" enable-background="new 0 0 512 512" height="512" viewBox="0 0 512 512" width="512" xmlns="http://www.w3.org/2000/svg"><g><g fill="#8daee1"><path d="m512 234.318c0 82.83-41.919 158.093-86.433 209.415-35.208 40.593-86.286 63.918-140.021 63.918h-59.092c-53.735 0-104.812-23.325-140.021-63.918-44.514-51.322-86.433-126.585-86.433-209.415z"/><path d="m512 234.318c0 82.83-41.919 158.093-86.433 209.415-35.208 40.593-86.286 63.918-140.021 63.918h-59.092c-53.735 0-104.812-23.325-140.021-63.918-44.514-51.322-86.433-126.585-86.433-209.415z"/><path d="m512 234.318c0 82.83-41.919 158.093-86.433 209.415-35.208 40.593-86.286 63.918-140.021 63.918h-59.092c-53.735 0-104.812-23.325-140.021-63.918-44.514-51.322-86.433-126.585-86.433-209.415z"/></g><path d="m139.586 234.318h-139.586c0 82.83 41.919 158.093 86.433 209.415 31.947 36.833 76.961 59.447 125.169 63.32-41.471-47.733-91.488-162.144-72.016-219.676z" fill="#6a95d6"/><path d="m256 446.151c-75.055 0-117.964-32.617-182.513-18.154 4.267 5.461 8.593 10.717 12.946 15.736 35.208 40.593 86.286 63.918 140.021 63.918h59.092c53.735 0 104.812-23.325 140.021-63.918 4.353-5.019 8.679-10.274 12.946-15.736-64.549-14.463-107.458 18.154-182.513 18.154z" fill="#a2ddfd"/><path d="m211.602 507.053c-15.366-17.686-31.899-44.517-45.642-74.228-30.087-6.926-58.236-12.5-92.473-4.828 4.267 5.461 8.593 10.717 12.946 15.736 31.948 36.833 76.961 59.447 125.169 63.32z" fill="#7acdf9"/><ellipse cx="256" cy="234.318" fill="#6a95d6" rx="256" ry="130.852"/><ellipse cx="256" cy="271.973" fill="#f6ee86" rx="245.222" ry="93.197"/><path d="m501.425 80.512-22.039-22.039c-14.843-14.843-39.172-13.943-52.877 1.957l-114.262 132.552c14.217 15.925 47.088 32.479 77.189 35.256l110.032-94.849c15.9-13.706 16.8-38.034 1.957-52.877z" fill="#a2ddfd"/><g><g><ellipse cx="155.078" cy="312.219" fill="#e7889d" rx="37.239" ry="29.655"/><ellipse cx="356.922" cy="312.219" fill="#e7889d" rx="37.239" ry="29.655"/><ellipse cx="256" cy="289.434" fill="#4e5660" rx="19.767" ry="22.119"/></g><g fill="#4e5660"><path d="m161.303 283.934c-4.142 0-7.5-3.357-7.5-7.5v-14.444c0-4.142 3.358-7.5 7.5-7.5s7.5 3.358 7.5 7.5v14.443c0 4.143-3.358 7.501-7.5 7.501z"/><path d="m350.697 283.934c-4.142 0-7.5-3.357-7.5-7.5v-14.444c0-4.142 3.358-7.5 7.5-7.5s7.5 3.358 7.5 7.5v14.443c0 4.143-3.358 7.501-7.5 7.501z"/></g></g><g fill="#88d37f"><path d="m231.383 238.473c-1.919 0-3.839-.732-5.303-2.196l-12.908-12.908c-2.929-2.93-2.929-7.678 0-10.607 2.929-2.928 7.678-2.928 10.606 0l12.908 12.908c2.929 2.93 2.929 7.678 0 10.607-1.464 1.463-3.384 2.196-5.303 2.196z"/><path d="m81.345 276.076c-1.919 0-3.839-.732-5.303-2.196-2.929-2.929-2.929-7.678 0-10.607l14.315-14.315c2.929-2.93 7.678-2.929 10.606-.001 2.929 2.929 2.929 7.678 0 10.607l-14.315 14.315c-1.464 1.465-3.384 2.197-5.303 2.197z"/><path d="m423.008 279.474h-8.282c-4.142 0-7.5-3.357-7.5-7.5 0-4.142 3.358-7.5 7.5-7.5h8.282c4.142 0 7.5 3.358 7.5 7.5s-3.358 7.5-7.5 7.5z"/></g><g fill="#eed076"><path d="m202.13 76.927c-1.919 0-3.839-.732-5.303-2.196-2.929-2.93-2.929-7.678 0-10.608 2.428-2.428 3.766-5.657 3.766-9.091s-1.337-6.663-3.766-9.091c-10.861-10.862-10.861-28.534 0-39.396 2.929-2.93 7.678-2.929 10.607-.001 2.929 2.929 2.929 7.678 0 10.606-5.013 5.014-5.013 13.17 0 18.184 10.861 10.861 10.861 28.533 0 39.396-1.465 1.464-3.384 2.197-5.304 2.197z"/><path d="m309.87 76.927c-1.919 0-3.839-.732-5.303-2.196-2.929-2.929-2.929-7.678 0-10.607 5.013-5.014 5.013-13.17 0-18.184-10.861-10.861-10.861-28.533 0-39.396 2.929-2.928 7.678-2.928 10.607 0 2.929 2.93 2.929 7.678 0 10.607-2.428 2.428-3.766 5.657-3.766 9.091s1.337 6.663 3.766 9.091c10.861 10.862 10.861 28.534 0 39.396-1.466 1.465-3.385 2.198-5.304 2.198z"/><path d="m256 76.927c-1.919 0-3.838-.732-5.303-2.196-2.929-2.929-2.929-7.678-.001-10.607 5.013-5.014 5.013-13.17 0-18.184-10.86-10.861-10.86-28.533 0-39.395 2.93-2.93 7.677-2.929 10.607-.001 2.929 2.929 2.929 7.678 0 10.606-5.013 5.014-5.013 13.17 0 18.184 10.86 10.861 10.86 28.533 0 39.395-1.464 1.465-3.384 2.198-5.303 2.198z"/></g></g></svg>